<svg width="414" height="585" viewBox="0 0 414 585" fill="none" xmlns="http://www.w3.org/2000/svg">
<defs>
<linearGradient id="paint0_linear_81_385" x1="577.564" y1="246.053" x2="415.569" y2="313.699" gradientUnits="userSpaceOnUse">
<stop stop-color="#2CAFF8"/>
<stop offset="1" stop-color="#2CAFF8" stop-opacity="0.54"/>
</linearGradient>
<linearGradient id="paint1_linear_81_385" x1="239.564" y1="-55.9467" x2="77.5692" y2="11.6992" gradientUnits="userSpaceOnUse">
<stop stop-color="#2CAFF8"/>
<stop offset="1" stop-color="#2CAFF8" stop-opacity="0.54"/>
</linearGradient>
<linearGradient id="paint2_linear_81_385" x1="209.846" y1="62.9091" x2="204.203" y2="68.4712" gradientUnits="userSpaceOnUse">
<stop stop-color="#2CAFF8"/>
<stop offset="1" stop-color="#2CAFF8" stop-opacity="0.54"/>
</linearGradient>
<linearGradient id="paint3_linear_81_385" x1="412.846" y1="27.9091" x2="407.203" y2="33.4712" gradientUnits="userSpaceOnUse">
<stop stop-color="#2CAFF8"/>
<stop offset="1" stop-color="#2CAFF8" stop-opacity="0.54"/>
</linearGradient>
<linearGradient id="paint4_linear_81_385" x1="2.84612" y1="302.409" x2="-2.79714" y2="307.971" gradientUnits="userSpaceOnUse">
<stop stop-color="#2CAFF8"/>
<stop offset="1" stop-color="#2CAFF8" stop-opacity="0.54"/>
</linearGradient>
<linearGradient id="paint5_linear_81_385" x1="254.846" y1="241.909" x2="249.203" y2="247.471" gradientUnits="userSpaceOnUse">
<stop stop-color="#2CAFF8"/>
<stop offset="1" stop-color="#2CAFF8" stop-opacity="0.54"/>
</linearGradient>
<linearGradient id="paint6_linear_81_385" x1="499.523" y1="180.053" x2="498.867" y2="191.303" gradientUnits="userSpaceOnUse">
<stop stop-color="#2CAFF8"/>
<stop offset="1" stop-color="#2CAFF8" stop-opacity="0.54"/>
</linearGradient>
<linearGradient id="paint7_linear_81_385" x1="187.523" y1="468.053" x2="186.867" y2="479.303" gradientUnits="userSpaceOnUse">
<stop stop-color="#2CAFF8"/>
<stop offset="1" stop-color="#2CAFF8" stop-opacity="0.54"/>
</linearGradient>
<linearGradient id="paint8_linear_81_385" x1="438.523" y1="27.0533" x2="437.867" y2="38.3028" gradientUnits="userSpaceOnUse">
<stop stop-color="#2CAFF8"/>
<stop offset="1" stop-color="#2CAFF8" stop-opacity="0.54"/>
</linearGradient>
<linearGradient id="paint9_linear_81_385" x1="212.523" y1="220.053" x2="211.867" y2="231.303" gradientUnits="userSpaceOnUse">
<stop stop-color="#2CAFF8"/>
<stop offset="1" stop-color="#2CAFF8" stop-opacity="0.54"/>
</linearGradient>
</defs>
<rect x="443.396" y="169" width="171" height="403.61" transform="rotate(41.4915 443.396 169)" fill="url(#paint0_linear_81_385)"/>
<rect x="105.396" y="-133" width="171" height="403.61" transform="rotate(41.4915 105.396 -133)" fill="url(#paint1_linear_81_385)"/>
<circle cx="207" cy="66" r="5" fill="url(#paint2_linear_81_385)"/>
<circle cx="410" cy="31" r="5" fill="url(#paint3_linear_81_385)"/>
<path d="M5 305.5C5 308.261 2.76142 310.5 0 310.5C-2.76142 310.5 -5 308.261 -5 305.5C-5 302.739 -2.76142 300.5 0 300.5C2.76142 300.5 5 302.739 5 305.5Z" fill="url(#paint4_linear_81_385)"/>
<circle cx="252" cy="245" r="5" fill="url(#paint5_linear_81_385)"/>
<rect x="363" y="178.144" width="174" height="10" rx="5" transform="rotate(-49.9245 363 178.144)" fill="url(#paint6_linear_81_385)"/>
<rect x="51" y="466.144" width="174" height="10" rx="5" transform="rotate(-49.9245 51 466.144)" fill="url(#paint7_linear_81_385)"/>
<rect x="302" y="25.1442" width="174" height="10" rx="5" transform="rotate(-49.9245 302 25.1442)" fill="url(#paint8_linear_81_385)"/>
<rect x="76" y="218.144" width="174" height="10" rx="5" transform="rotate(-49.9245 76 218.144)" fill="url(#paint9_linear_81_385)"/>

</svg>
