<svg width="141" height="140" viewBox="0 0 141 140" fill="none" xmlns="http://www.w3.org/2000/svg">
<circle cx="70.75" cy="70.0625" r="69.2031" fill="#3498DB" stroke="white" stroke-width="1.34375"/>
<path d="M122.526 114.649C129.404 106.011 134.188 95.7698 136.472 84.7932C138.757 73.8165 138.476 62.427 135.652 51.5879C132.828 40.7488 127.545 30.7792 120.25 22.5223C112.955 14.2654 103.862 7.96421 93.7401 4.15177C83.6186 0.339321 72.7665 -0.872226 62.1016 0.619615C51.4368 2.11146 41.273 6.2628 32.4701 12.7225C23.6671 19.1821 16.4841 27.7601 11.5285 37.7306C6.5729 47.7012 3.9906 58.7711 4.00003 70.0038C4.00364 86.333 9.51589 102.139 19.5695 114.649L19.4737 114.734C19.809 115.154 20.1921 115.514 20.5369 115.929C20.9679 116.444 21.4325 116.929 21.8779 117.429C23.2188 118.949 24.5981 120.408 26.0444 121.778C26.485 122.198 26.94 122.588 27.3854 122.988C28.9179 124.368 30.4935 125.678 32.1266 126.898C32.3373 127.048 32.5289 127.243 32.7396 127.398V127.338C43.9563 135.578 57.3371 140 71.0527 140C84.7683 140 98.1491 135.578 109.366 127.338V127.398C109.577 127.243 109.763 127.048 109.979 126.898C111.607 125.673 113.188 124.368 114.72 122.988C115.165 122.588 115.62 122.193 116.061 121.778C117.507 120.403 118.887 118.949 120.228 117.429C120.673 116.929 121.133 116.444 121.569 115.929C121.909 115.514 122.296 115.154 122.632 114.729L122.526 114.649ZM71.0479 30.0081C75.3103 30.0081 79.477 31.3276 83.0211 33.7996C86.5651 36.2717 89.3274 39.7853 90.9585 43.8962C92.5897 48.0071 93.0165 52.5307 92.1849 56.8948C91.3534 61.2589 89.3008 65.2676 86.2868 68.4139C83.2729 71.5603 79.4328 73.703 75.2523 74.571C71.0718 75.4391 66.7386 74.9936 62.8007 73.2908C58.8627 71.588 55.4969 68.7044 53.1288 65.0047C50.7608 61.305 49.4968 56.9553 49.4968 52.5057C49.4968 46.539 51.7674 40.8166 55.809 36.5975C59.8506 32.3784 65.3322 30.0081 71.0479 30.0081ZM32.7684 114.649C32.8514 108.085 35.4069 101.818 39.8819 97.2056C44.357 92.593 50.3917 90.0051 56.6805 90.0017H85.4153C91.7042 90.0051 97.7389 92.593 102.214 97.2056C106.689 101.818 109.244 108.085 109.327 114.649C98.8241 124.53 85.1867 129.998 71.0479 129.998C56.9091 129.998 43.2717 124.53 32.7684 114.649Z" fill="#68E1FD" fill-opacity="0.5"/>
</svg>
