<svg width="231" height="229" viewBox="0 0 231 229" fill="none" xmlns="http://www.w3.org/2000/svg">
<path d="M229.612 23.019C229.612 23.019 227.478 18.4872 224.093 12.2296C224.093 12.2296 213.22 21.579 213.303 21.0602C213.386 20.5413 229.612 23.019 229.612 23.019Z" fill="#231F20"/>
<path d="M229.612 23.5484H229.548C223.826 22.6695 214.489 21.3672 213.468 21.526C213.202 21.6531 213.119 21.5895 213.027 21.526C212.947 21.4643 212.885 21.3776 212.848 21.2761C212.81 21.1747 212.799 21.0629 212.815 20.9543C212.815 20.806 212.87 20.6578 213.174 20.5731C213.799 20.2872 220.018 15.0461 223.78 11.8061C223.831 11.7621 223.889 11.7308 223.951 11.7144C224.013 11.698 224.077 11.6967 224.139 11.7108C224.201 11.7225 224.26 11.7493 224.313 11.7895C224.365 11.8297 224.409 11.8823 224.443 11.9438C227.837 18.1484 229.962 22.7225 230.017 22.7648C230.055 22.8456 230.075 22.9364 230.073 23.0284C230.072 23.1204 230.05 23.2104 230.009 23.2895C229.968 23.3686 229.91 23.4341 229.84 23.4795C229.771 23.5249 229.692 23.5486 229.612 23.5484V23.5484ZM214.894 20.5413C216.899 20.6684 220.864 21.166 228.738 22.3625C227.975 20.7848 226.255 17.3225 223.9 13.0026C218.988 17.2378 216.366 19.4296 214.922 20.5413H214.894Z" fill="#231F20"/>
<path d="M85.5395 211.858L80.1122 201.44L87.6277 193.626L85.5395 211.858Z" fill="#231F20"/>
<path d="M85.5395 212.388C85.4604 212.386 85.3829 212.362 85.3139 212.318C85.2449 212.274 85.1865 212.21 85.1439 212.134L79.7166 201.715C79.662 201.609 79.6414 201.484 79.6582 201.362C79.6749 201.241 79.7281 201.129 79.8086 201.048L87.3149 193.234C87.3851 193.161 87.4731 193.115 87.5669 193.102C87.6607 193.088 87.7558 193.109 87.8392 193.16C87.9214 193.212 87.9882 193.291 88.0308 193.387C88.0735 193.484 88.09 193.593 88.0784 193.7L85.9994 211.901C85.9877 212.012 85.9457 212.115 85.8797 212.197C85.8136 212.279 85.7267 212.335 85.6315 212.356L85.5395 212.388ZM80.7009 201.546L85.3003 210.281L87.0481 194.981L80.7009 201.546Z" fill="#231F20"/>
<path d="M89.0629 214.018L176.452 228.344C178.245 228.617 180.063 228.146 181.58 227.014C183.098 225.883 184.215 224.166 184.731 222.171L229.953 27.4554C230.873 23.4213 228.638 19.8743 224.93 19.5248L135.821 11.2555C134.059 11.1559 132.32 11.7407 130.882 12.9158C129.444 14.091 128.39 15.7884 127.891 17.7355L84.5002 206.014C84.275 206.887 84.2181 207.807 84.3334 208.709C84.4488 209.611 84.7335 210.473 85.1679 211.235C85.6023 211.997 86.1758 212.64 86.8485 213.121C87.5211 213.602 88.2768 213.908 89.0629 214.018V214.018Z" fill="#231F20"/>
<path d="M177.418 228.99C177.064 228.988 176.711 228.959 176.36 228.905L88.9707 214.569C88.1256 214.449 87.3127 214.122 86.5873 213.608C85.8619 213.095 85.241 212.408 84.7668 211.594C84.2954 210.757 83.985 209.814 83.8565 208.828C83.728 207.842 83.7843 206.835 84.0217 205.876L127.413 17.6296C127.944 15.5616 129.061 13.7579 130.587 12.5065C132.112 11.2552 133.958 10.6283 135.83 10.7261L224.939 18.9955C225.843 19.0574 226.723 19.3476 227.518 19.8453C228.313 20.3431 229.003 21.0362 229.539 21.8754C230.032 22.7008 230.359 23.6423 230.495 24.6314C230.632 25.6205 230.576 26.6323 230.33 27.593L185.108 222.309C184.616 224.223 183.604 225.905 182.219 227.108C180.835 228.31 179.152 228.97 177.418 228.99V228.99ZM89.1087 213.521L176.498 227.857C178.183 228.116 179.893 227.675 181.321 226.613C182.749 225.552 183.801 223.939 184.29 222.065L229.474 27.3601C229.688 26.5488 229.74 25.6927 229.627 24.8551C229.514 24.0175 229.238 23.2199 228.821 22.5213C228.361 21.8023 227.767 21.2105 227.083 20.7892C226.398 20.3679 225.641 20.1277 224.866 20.0861L135.756 11.785C134.1 11.6848 132.463 12.2316 131.11 13.3367C129.758 14.4418 128.769 16.0403 128.305 17.8731L84.9416 206.151C84.7361 206.965 84.6848 207.82 84.7911 208.658C84.8975 209.497 85.159 210.299 85.5579 211.011C85.9631 211.698 86.4911 212.278 87.1067 212.71C87.7223 213.143 88.4112 213.419 89.1271 213.521H89.1087Z" fill="#231F20"/>
<path d="M83.3778 203.303L170.767 217.629C172.559 217.898 174.376 217.424 175.892 216.293C177.409 215.163 178.527 213.448 179.046 211.456L224.259 16.7402C225.179 12.7061 222.943 9.15906 219.236 8.80965L130.108 0.540324C128.346 0.442053 126.606 1.02715 125.166 2.20196C123.727 3.37678 122.672 5.07339 122.169 7.02026L78.806 195.267C78.576 196.143 78.5157 197.067 78.6293 197.973C78.7428 198.88 79.0275 199.746 79.4633 200.512C79.8991 201.278 80.4754 201.925 81.1517 202.407C81.828 202.889 82.5878 203.195 83.3778 203.303V203.303Z" fill="white"/>
<path d="M171.733 218.254C171.379 218.252 171.026 218.223 170.675 218.169L83.2857 203.833C82.4406 203.713 81.6277 203.385 80.9023 202.872C80.1769 202.358 79.556 201.671 79.0818 200.857C78.6099 200.021 78.2991 199.078 78.1706 198.091C78.042 197.105 78.0987 196.099 78.3367 195.14L121.737 6.89325C122.268 4.82721 123.386 3.02609 124.913 1.77829C126.439 0.530481 128.284 -0.0918386 130.154 0.0109674L219.245 8.2803C220.156 8.33533 221.046 8.62216 221.849 9.12015C222.652 9.61813 223.349 10.3149 223.891 11.1603C224.381 11.9869 224.707 12.9283 224.843 13.9169C224.98 14.9055 224.925 15.9167 224.682 16.8779L179.46 211.594C178.963 213.511 177.943 215.193 176.552 216.392C175.161 217.592 173.471 218.244 171.733 218.254ZM129.575 1.0486C128.009 1.0985 126.498 1.71602 125.256 2.8131C124.013 3.91018 123.104 5.43077 122.657 7.15796L79.2566 195.404C79.0511 196.218 78.9998 197.073 79.1061 197.911C79.2125 198.75 79.474 199.552 79.8729 200.264C80.2781 200.951 80.8061 201.531 81.4217 201.963C82.0373 202.396 82.7261 202.673 83.4421 202.774V202.774L170.832 217.11C172.512 217.361 174.215 216.916 175.637 215.855C177.059 214.794 178.108 213.186 178.595 211.318L223.789 16.6132C224.001 15.8016 224.052 14.9459 223.939 14.1087C223.826 13.2715 223.552 12.474 223.136 11.7744C222.675 11.054 222.08 10.4614 221.394 10.0401C220.708 9.6187 219.948 9.37921 219.172 9.33911L130.071 1.06978L129.575 1.0486Z" fill="#231F20"/>
<path d="M215.602 29.5518L124.377 20.4566L89.3754 172.354L179.267 186.108L215.602 29.5518Z" fill="#3498DB"/>
<path d="M175.587 165.175C175.5 165.176 175.414 165.147 175.341 165.093C175.267 165.038 175.209 164.96 175.173 164.868L156.776 120.091C156.749 120.028 156.734 119.959 156.731 119.889C156.728 119.819 156.737 119.749 156.757 119.683C156.778 119.617 156.809 119.557 156.85 119.505C156.892 119.453 156.941 119.411 156.996 119.382C157.106 119.324 157.232 119.318 157.345 119.365C157.459 119.413 157.552 119.51 157.604 119.636L176.001 164.424C176.027 164.486 176.043 164.554 176.046 164.623C176.049 164.692 176.04 164.761 176.019 164.827C175.998 164.892 175.967 164.951 175.926 165.002C175.885 165.053 175.835 165.094 175.78 165.122C175.72 165.155 175.654 165.173 175.587 165.175V165.175Z" fill="white"/>
<path d="M119.483 202.17L136.538 204.934C137.621 205.087 138.716 204.792 139.628 204.102C140.54 203.411 141.208 202.37 141.515 201.164L143.207 193.848C143.349 193.292 143.383 192.708 143.306 192.135C143.229 191.563 143.043 191.018 142.762 190.537C142.481 190.057 142.111 189.654 141.679 189.357C141.248 189.06 140.764 188.876 140.264 188.819L123.19 186.15C122.118 186.015 121.038 186.319 120.14 187.008C119.242 187.697 118.583 188.728 118.278 189.92L116.595 197.173C116.453 197.722 116.418 198.3 116.492 198.866C116.566 199.432 116.747 199.973 117.022 200.45C117.298 200.927 117.661 201.328 118.086 201.625C118.512 201.923 118.989 202.109 119.483 202.17Z" fill="white"/>
<path d="M137.109 205.548C136.896 205.551 136.684 205.534 136.474 205.495L119.419 202.742C118.86 202.668 118.322 202.454 117.843 202.116C117.363 201.777 116.954 201.323 116.643 200.783C116.332 200.244 116.127 199.632 116.042 198.992C115.958 198.352 115.996 197.699 116.154 197.077L117.828 189.824C118.163 188.508 118.891 187.369 119.884 186.61C120.877 185.85 122.071 185.519 123.255 185.674L140.328 188.332C140.896 188.409 141.443 188.625 141.932 188.967C142.421 189.309 142.84 189.767 143.161 190.312C143.468 190.855 143.671 191.468 143.755 192.109C143.839 192.75 143.803 193.404 143.649 194.028L141.975 201.313C141.669 202.528 141.03 203.598 140.153 204.361C139.276 205.124 138.208 205.541 137.109 205.548V205.548ZM119.548 201.694L136.603 204.447C137.573 204.583 138.554 204.318 139.371 203.699C140.188 203.081 140.788 202.149 141.064 201.069L142.766 193.753C142.884 193.273 142.912 192.771 142.848 192.278C142.785 191.785 142.631 191.313 142.398 190.894C142.147 190.477 141.822 190.127 141.445 189.866C141.067 189.605 140.646 189.439 140.209 189.38L123.126 186.722C122.165 186.595 121.195 186.863 120.389 187.479C119.583 188.095 118.991 189.02 118.72 190.089L117.046 197.353C116.92 197.829 116.887 198.331 116.95 198.824C117.013 199.316 117.169 199.787 117.408 200.202C117.647 200.617 117.963 200.965 118.333 201.223C118.703 201.481 119.118 201.642 119.548 201.694V201.694Z" fill="#E6E7E8"/>
<path d="M188.613 16.4967L162.553 13.9873C162.492 13.9811 162.433 13.9612 162.38 13.9288C162.326 13.8964 162.278 13.8522 162.24 13.7986C162.201 13.745 162.171 13.6831 162.153 13.6165C162.135 13.5499 162.129 13.4798 162.134 13.4103C162.139 13.3408 162.157 13.2732 162.185 13.2113C162.213 13.1495 162.251 13.0946 162.298 13.0499C162.345 13.0052 162.398 12.9714 162.456 12.9506C162.514 12.9298 162.575 12.9223 162.635 12.9285L188.687 15.4273C188.809 15.4273 188.926 15.4831 189.012 15.5824C189.098 15.6817 189.147 15.8163 189.147 15.9567C189.147 16.0971 189.098 16.2318 189.012 16.3311C188.926 16.4304 188.809 16.4861 188.687 16.4861L188.613 16.4967Z" fill="#D1D3D4"/>
<path d="M158.937 13.6379L155.479 13.3097C155.418 13.3044 155.36 13.2853 155.306 13.2535C155.253 13.2217 155.205 13.1778 155.167 13.1245C155.128 13.0712 155.099 13.0095 155.082 12.9431C155.064 12.8767 155.058 12.8069 155.065 12.7379C155.076 12.5984 155.135 12.4696 155.227 12.3787C155.32 12.2878 155.44 12.242 155.561 12.2509L159.011 12.5897C159.133 12.5897 159.25 12.6455 159.336 12.7447C159.422 12.844 159.471 12.9787 159.471 13.1191C159.471 13.2595 159.422 13.3942 159.336 13.4934C159.25 13.5927 159.133 13.6485 159.011 13.6485L158.937 13.6379Z" fill="#D1D3D4"/>
<path d="M184.529 113.368C184.529 113.368 195.733 70.8456 186.019 61.4222L138.479 54.8364C138.479 54.8364 130.329 64.6092 129.151 72.1162C127.974 79.6232 118.113 95.6113 121.792 105.151L184.529 113.368Z" fill="#231F20"/>
<path d="M184.529 113.897H184.483L121.737 105.67C121.658 105.659 121.583 105.625 121.519 105.571C121.454 105.517 121.403 105.446 121.369 105.363C118.821 98.7347 122.546 89.1737 125.545 81.4867C127.026 77.6961 128.305 74.4138 128.673 72.0209C129.86 64.4398 137.78 54.8681 138.12 54.4657C138.17 54.4067 138.23 54.3616 138.297 54.334C138.364 54.3064 138.436 54.2972 138.507 54.3069L186.046 60.9033C186.134 60.9171 186.216 60.9573 186.286 61.0198C196.119 70.5491 185.366 111.779 184.943 113.526C184.915 113.629 184.86 113.72 184.786 113.786C184.712 113.852 184.622 113.891 184.529 113.897ZM122.142 104.654L184.197 112.796C185.32 108.37 194.509 70.7185 185.826 61.9727L138.654 55.4293C137.531 56.8269 130.651 65.5515 129.602 72.2538C129.206 74.7738 127.909 78.1091 126.41 81.9631C123.577 89.3007 119.962 98.4595 122.142 104.654Z" fill="#231F20"/>
<path d="M189.018 114.617H188.953L109.503 101.784C109.384 101.763 109.277 101.689 109.204 101.578C109.132 101.468 109.1 101.329 109.116 101.191C109.132 101.052 109.196 100.926 109.292 100.841C109.389 100.756 109.511 100.718 109.631 100.736L189.082 113.569C189.204 113.59 189.313 113.665 189.387 113.778C189.461 113.89 189.494 114.032 189.478 114.172C189.458 114.297 189.402 114.409 189.318 114.49C189.234 114.572 189.128 114.616 189.018 114.617V114.617Z" fill="#231F20"/>
<path d="M186.019 61.4222C186.019 61.4222 181.199 62.1845 178.246 73.7256C173.729 91.3866 167.777 128.657 164.015 142.676C158.496 163.068 143.778 165.969 143.778 165.969L81.5471 155.582C81.5471 155.582 106.872 145.481 111.149 128.307C115.647 110.212 121.875 76.0232 123.558 68.3891C126.53 54.8681 138.507 54.8681 138.507 54.8681L186.019 61.4222Z" fill="white"/>
<path d="M143.75 166.467H143.686L81.4551 156.08C81.3528 156.062 81.2584 156.006 81.1869 155.919C81.1153 155.833 81.0706 155.722 81.0596 155.604C81.0495 155.486 81.074 155.368 81.129 155.268C81.184 155.168 81.2664 155.093 81.3631 155.053C81.6207 154.958 106.522 144.835 110.68 128.127C113.798 115.58 117.8 95.0607 120.44 81.4761C121.627 75.3879 122.565 70.5703 123.08 68.2303C126.107 54.4657 138.359 54.3069 138.479 54.3069L186.074 60.9033C186.185 60.9187 186.287 60.9798 186.361 61.0752C186.436 61.1706 186.477 61.2939 186.479 61.4221C186.478 61.55 186.438 61.6734 186.365 61.7703C186.293 61.8673 186.193 61.9315 186.083 61.9515C186.01 61.9515 181.484 62.9151 178.724 73.8738C176.434 82.8102 173.794 96.7442 171.227 110.223C168.725 123.426 166.352 135.899 164.493 142.834C161.623 153.518 156.214 159.373 152.112 162.401C149.597 164.34 146.789 165.719 143.833 166.467H143.75ZM83.3409 155.328L143.741 165.408C144.817 165.154 158.459 161.649 163.574 142.517C165.413 135.624 167.796 123.172 170.298 110.001C172.855 96.5006 175.514 82.5455 177.804 73.5773C179.745 66.0068 182.486 62.9892 184.243 61.708L138.424 55.3551C138.001 55.3551 126.824 55.5351 123.972 68.495C123.466 70.8138 122.528 75.6208 121.341 81.709C118.692 95.3042 114.691 115.845 111.563 128.424C109.309 137.456 101.288 144.497 94.9499 148.806C91.2278 151.312 87.3472 153.492 83.3409 155.328V155.328Z" fill="#231F20"/>
<path d="M156.104 143.914H156.049L147.632 142.855C147.511 142.839 147.401 142.769 147.325 142.66C147.249 142.551 147.214 142.412 147.227 142.273C147.233 142.204 147.251 142.137 147.279 142.075C147.308 142.014 147.347 141.96 147.394 141.917C147.441 141.873 147.496 141.841 147.554 141.822C147.612 141.804 147.673 141.798 147.733 141.807L156.159 142.866C156.28 142.882 156.39 142.952 156.466 143.061C156.542 143.17 156.577 143.31 156.564 143.448C156.549 143.577 156.494 143.694 156.409 143.78C156.325 143.865 156.216 143.913 156.104 143.914V143.914Z" fill="#D1D3D4"/>
<path d="M140.843 141.924H140.788L115.592 138.631C115.472 138.615 115.362 138.545 115.286 138.436C115.21 138.327 115.175 138.187 115.188 138.048C115.193 137.979 115.211 137.912 115.24 137.851C115.268 137.79 115.308 137.736 115.355 137.692C115.402 137.649 115.456 137.617 115.514 137.598C115.573 137.579 115.634 137.574 115.693 137.583L140.898 140.865C141.02 140.873 141.135 140.937 141.216 141.042C141.297 141.148 141.338 141.286 141.331 141.426C141.323 141.567 141.268 141.698 141.177 141.791C141.085 141.884 140.965 141.932 140.843 141.924V141.924Z" fill="#D1D3D4"/>
<path d="M148.58 154.979H148.524L140.788 153.92C140.728 153.912 140.669 153.89 140.616 153.856C140.563 153.821 140.517 153.775 140.479 153.72C140.442 153.665 140.414 153.602 140.397 153.535C140.381 153.467 140.376 153.397 140.383 153.327C140.391 153.258 140.41 153.19 140.44 153.129C140.469 153.068 140.509 153.015 140.557 152.971C140.605 152.928 140.66 152.896 140.718 152.877C140.777 152.858 140.838 152.853 140.899 152.861L148.635 153.92C148.695 153.924 148.754 153.942 148.809 153.973C148.863 154.003 148.912 154.046 148.952 154.098C148.992 154.15 149.023 154.21 149.043 154.276C149.062 154.342 149.071 154.412 149.067 154.481C149.064 154.551 149.048 154.619 149.022 154.681C148.995 154.744 148.958 154.8 148.913 154.846C148.868 154.893 148.815 154.928 148.758 154.951C148.701 154.974 148.64 154.983 148.58 154.979V154.979Z" fill="#D1D3D4"/>
<path d="M132.215 152.84H132.16L108.068 149.664C107.946 149.648 107.834 149.578 107.757 149.467C107.68 149.357 107.645 149.216 107.658 149.076C107.672 148.936 107.733 148.807 107.829 148.719C107.925 148.63 108.047 148.589 108.169 148.605L132.27 151.781C132.39 151.797 132.501 151.867 132.576 151.977C132.652 152.086 132.688 152.225 132.675 152.364C132.661 152.494 132.607 152.614 132.523 152.702C132.438 152.789 132.329 152.838 132.215 152.84Z" fill="#D1D3D4"/>
<path d="M143.75 165.938C140.11 162.066 137.31 157.265 135.576 151.921C133.843 146.577 133.224 140.838 133.769 135.168L68.457 121.605C68.457 121.605 74.0592 146.773 81.5102 155.551L143.75 165.938Z" fill="white"/>
<path d="M143.75 166.467H143.686L81.4552 156.08C81.3542 156.06 81.261 156.005 81.1884 155.921C73.7373 147.144 68.2456 122.77 68.0156 121.732C67.9966 121.647 67.9967 121.557 68.0161 121.472C68.0354 121.387 68.0732 121.309 68.126 121.245C68.1781 121.178 68.2444 121.127 68.3184 121.097C68.3925 121.067 68.4719 121.06 68.5491 121.076L133.861 134.639C133.974 134.667 134.074 134.742 134.142 134.849C134.21 134.957 134.241 135.089 134.229 135.221C133.713 140.805 134.332 146.45 136.037 151.711C137.742 156.972 140.487 161.705 144.054 165.535C144.13 165.602 144.187 165.696 144.214 165.802C144.241 165.908 144.238 166.022 144.205 166.126C144.172 166.23 144.111 166.32 144.031 166.381C143.951 166.442 143.855 166.472 143.759 166.467H143.75ZM81.7404 155.053L142.379 165.175C139.089 161.3 136.57 156.649 134.996 151.543C133.422 146.437 132.831 140.998 133.263 135.603L69.0919 122.272C70.1222 126.603 75.2551 147.25 81.7404 155.053Z" fill="#231F20"/>
<path d="M169.617 77.929H169.571L129.096 72.635C129.035 72.6285 128.976 72.6078 128.922 72.5741C128.868 72.5404 128.821 72.4943 128.783 72.4388C128.745 72.3833 128.717 72.3195 128.702 72.2513C128.686 72.1831 128.682 72.1119 128.691 72.042C128.705 71.9033 128.766 71.7764 128.861 71.6891C128.956 71.6019 129.077 71.5613 129.197 71.5762L169.672 76.8702C169.794 76.8772 169.909 76.9397 169.991 77.044C170.073 77.1482 170.115 77.2857 170.109 77.4261C170.103 77.5665 170.049 77.6984 169.958 77.7927C169.868 77.887 169.748 77.936 169.626 77.929H169.617Z" fill="#D1D3D4"/>
<path d="M167.924 89.9148H167.869L160.271 88.9195C160.211 88.9112 160.152 88.8892 160.099 88.8549C160.046 88.8206 159.999 88.7746 159.962 88.7195C159.924 88.6645 159.897 88.6014 159.88 88.534C159.864 88.4666 159.859 88.3961 159.866 88.3266C159.873 88.2571 159.893 88.1899 159.922 88.1288C159.952 88.0678 159.992 88.0141 160.04 87.9709C160.088 87.9276 160.143 87.8956 160.201 87.8767C160.26 87.8578 160.321 87.8524 160.381 87.8607L167.97 88.8454C168.031 88.8489 168.09 88.866 168.145 88.8958C168.199 88.9256 168.248 88.9676 168.289 89.0192C168.329 89.0708 168.361 89.1311 168.381 89.1967C168.401 89.2622 168.41 89.3317 168.407 89.4013C168.404 89.4708 168.389 89.5389 168.364 89.6018C168.338 89.6647 168.301 89.7212 168.256 89.7679C168.212 89.8146 168.159 89.8506 168.102 89.874C168.045 89.8974 167.985 89.9077 167.924 89.9042V89.9148Z" fill="#D1D3D4"/>
<path d="M151.817 87.8078L127.459 84.6314C127.337 84.6159 127.225 84.5453 127.148 84.4351C127.071 84.3249 127.036 84.1841 127.049 84.0437C127.063 83.9033 127.124 83.7748 127.22 83.6864C127.316 83.5981 127.438 83.5571 127.56 83.5725L151.918 86.749C151.979 86.7531 152.038 86.771 152.092 86.8014C152.147 86.8319 152.195 86.8744 152.236 86.9265C152.276 86.9786 152.307 87.0393 152.326 87.1051C152.346 87.171 152.354 87.2406 152.351 87.3101C152.347 87.3797 152.332 87.4477 152.305 87.5103C152.279 87.573 152.242 87.629 152.197 87.6752C152.151 87.7214 152.099 87.7569 152.041 87.7796C151.984 87.8024 151.924 87.812 151.863 87.8078H151.817Z" fill="#D1D3D4"/>
<path d="M165.422 101.085H165.367L152.847 99.4548C152.726 99.4362 152.616 99.3639 152.54 99.2531C152.465 99.1423 152.43 99.0019 152.443 98.8618C152.459 98.7222 152.522 98.5953 152.618 98.5083C152.714 98.4212 152.836 98.3809 152.958 98.396L165.468 100.037C165.529 100.044 165.587 100.064 165.64 100.097C165.693 100.13 165.74 100.175 165.778 100.23C165.816 100.284 165.844 100.346 165.86 100.413C165.876 100.48 165.881 100.55 165.873 100.619C165.86 100.747 165.807 100.864 165.724 100.95C165.641 101.036 165.534 101.084 165.422 101.085V101.085Z" fill="#D1D3D4"/>
<path d="M140.843 97.8771H140.788L124.911 95.7595C124.85 95.7518 124.792 95.7306 124.739 95.6969C124.685 95.6632 124.638 95.6178 124.6 95.5632C124.562 95.5087 124.534 95.446 124.517 95.3789C124.5 95.3117 124.495 95.2414 124.502 95.1718C124.508 95.1023 124.527 95.035 124.556 94.9737C124.585 94.9124 124.625 94.8583 124.672 94.8145C124.719 94.7708 124.774 94.7382 124.832 94.7187C124.891 94.6991 124.952 94.693 125.012 94.7007L140.899 96.7654C141.02 96.7839 141.13 96.8563 141.206 96.967C141.281 97.0778 141.316 97.2182 141.303 97.3583C141.299 97.496 141.248 97.6264 141.163 97.7229C141.077 97.8193 140.963 97.8745 140.843 97.8771V97.8771Z" fill="#D1D3D4"/>
<path d="M163.288 111.663H163.233L152.792 110.255C152.671 110.236 152.561 110.164 152.485 110.053C152.41 109.942 152.375 109.802 152.388 109.662C152.406 109.523 152.469 109.398 152.565 109.311C152.661 109.225 152.782 109.183 152.903 109.196L163.334 110.562C163.456 110.569 163.571 110.631 163.653 110.735C163.735 110.84 163.777 110.977 163.771 111.118C163.765 111.258 163.711 111.39 163.62 111.484C163.53 111.578 163.41 111.628 163.288 111.621V111.663Z" fill="#D1D3D4"/>
<path d="M141.708 108.846H141.653L122.767 106.379C122.647 106.363 122.537 106.293 122.461 106.184C122.385 106.075 122.35 105.936 122.363 105.797C122.379 105.657 122.442 105.53 122.538 105.443C122.634 105.356 122.756 105.316 122.878 105.331L141.754 107.798C141.876 107.798 141.993 107.854 142.079 107.953C142.165 108.053 142.214 108.187 142.214 108.328C142.214 108.468 142.165 108.603 142.079 108.702C141.993 108.801 141.876 108.857 141.754 108.857L141.708 108.846Z" fill="#D1D3D4"/>
<path d="M161.072 123.373L151.808 122.166C151.688 122.15 151.578 122.08 151.502 121.971C151.426 121.862 151.391 121.723 151.404 121.584C151.409 121.515 151.427 121.447 151.456 121.386C151.484 121.325 151.524 121.271 151.571 121.228C151.618 121.184 151.672 121.152 151.731 121.133C151.789 121.114 151.85 121.109 151.91 121.118L161.173 122.325C161.295 122.334 161.409 122.397 161.49 122.503C161.571 122.608 161.612 122.746 161.605 122.886C161.598 123.027 161.542 123.158 161.451 123.251C161.36 123.345 161.24 123.392 161.118 123.384L161.072 123.373Z" fill="#D1D3D4"/>
<path d="M146.032 121.415H145.976L120.56 118.09C120.439 118.074 120.329 118.004 120.253 117.895C120.177 117.786 120.142 117.646 120.155 117.508C120.161 117.438 120.178 117.371 120.207 117.31C120.236 117.249 120.275 117.195 120.322 117.151C120.369 117.108 120.424 117.076 120.482 117.057C120.54 117.038 120.601 117.033 120.661 117.042L146.078 120.356C146.2 120.363 146.314 120.425 146.396 120.529C146.478 120.634 146.521 120.771 146.514 120.912C146.508 121.052 146.454 121.184 146.364 121.278C146.273 121.372 146.154 121.422 146.032 121.415V121.415Z" fill="#D1D3D4"/>
<path d="M158.735 132.85H158.68L147.641 131.41C147.52 131.394 147.41 131.324 147.334 131.214C147.259 131.105 147.223 130.966 147.236 130.827C147.242 130.758 147.26 130.691 147.288 130.63C147.317 130.568 147.356 130.514 147.403 130.471C147.451 130.428 147.505 130.395 147.563 130.377C147.621 130.358 147.682 130.353 147.742 130.361L158.781 131.801C158.903 131.81 159.017 131.874 159.098 131.979C159.179 132.084 159.221 132.222 159.213 132.363C159.206 132.503 159.15 132.634 159.059 132.728C158.968 132.821 158.848 132.869 158.726 132.86L158.735 132.85Z" fill="#D1D3D4"/>
<path d="M142.701 130.764L118.269 127.587C118.147 127.572 118.035 127.501 117.959 127.391C117.882 127.281 117.846 127.14 117.86 127C117.873 126.859 117.934 126.731 118.03 126.642C118.126 126.554 118.248 126.513 118.37 126.529L142.802 129.705C142.924 129.713 143.039 129.777 143.12 129.883C143.201 129.988 143.242 130.126 143.235 130.266C143.228 130.407 143.172 130.538 143.081 130.631C142.989 130.725 142.869 130.772 142.747 130.764H142.701Z" fill="#D1D3D4"/>
<path d="M15.6524 61.9556L36.7692 114.199C38.5179 118.525 42.9826 120.401 46.7413 118.388L116.392 81.0893C120.151 79.0764 121.78 73.9375 120.032 69.6111L98.9147 17.3678C97.166 13.0415 92.7013 11.166 88.9426 13.1788L19.2918 50.4774C15.5331 52.4902 13.9037 57.6292 15.6524 61.9556Z" fill="white"/>
<path d="M43.5926 119.784C42.0744 119.786 40.5872 119.289 39.3063 118.351C38.0253 117.413 37.0039 116.074 36.3622 114.49L15.2048 62.248C14.315 60.0435 14.2222 57.5226 14.9467 55.2393C15.6712 52.956 17.1537 51.0973 19.0683 50.0717L88.7223 12.7697C90.6375 11.7456 92.8277 11.6387 94.8114 12.4726C96.7951 13.3065 98.4099 15.0129 99.301 17.2167L120.412 69.4586C120.855 70.5493 121.106 71.7296 121.151 72.932C121.197 74.1344 121.036 75.3354 120.678 76.4662C120.32 77.5971 119.772 78.6356 119.065 79.5225C118.358 80.4094 117.506 81.1272 116.558 81.6349L46.9041 118.937C45.8665 119.492 44.7366 119.781 43.5926 119.784V119.784ZM92.1075 12.9073C91.0845 12.9081 90.0738 13.1646 89.1454 13.6591L19.4915 50.9611C17.7992 51.8692 16.4893 53.5134 15.8494 55.5324C15.2095 57.5514 15.292 59.7801 16.0787 61.7292V61.7292L37.2361 113.982C38.027 115.93 39.4571 117.438 41.2127 118.175C42.9682 118.911 44.9059 118.816 46.6006 117.91L116.218 80.6079C117.91 79.6997 119.22 78.0556 119.86 76.0366C120.5 74.0176 120.417 71.7888 119.631 69.8397L98.4731 17.5873C97.9064 16.193 97.0072 15.0128 95.8802 14.1843C94.7532 13.3557 93.4448 12.9128 92.1075 12.9073V12.9073Z" fill="#231F20"/>
<path d="M76.5727 38.1878L81.9004 51.3686C83.1648 54.4968 86.3929 55.8528 89.1107 54.3975L97.2175 50.0562C99.9352 48.6008 101.113 44.8852 99.849 41.757L94.5213 28.5762C93.2569 25.448 90.0287 24.092 87.311 25.5473L79.2041 29.8886C76.4864 31.344 75.3083 35.0597 76.5727 38.1878Z" fill="#3498DB"/>
<path d="M26.6738 58.0151C25.0017 58.9105 24.2769 61.1966 25.0548 63.1212C25.8327 65.0458 27.8189 65.8801 29.491 64.9847L45.0959 56.6282C46.7679 55.7327 47.4928 53.4467 46.7149 51.5221C45.9369 49.5975 43.9508 48.7631 42.2787 49.6586L26.6738 58.0151Z" fill="#D1D3D4"/>
<path d="M94.0614 71.9954L95.5553 75.6914C95.9475 76.6617 96.9487 77.0823 97.7917 76.6309L109.535 70.3422C110.378 69.8908 110.743 68.7384 110.351 67.7681L108.857 64.0721C108.465 63.1018 107.464 62.6812 106.621 63.1326L94.8775 69.4213C94.0346 69.8727 93.6692 71.0252 94.0614 71.9954Z" fill="#D1D3D4"/>
<path d="M76.1373 81.6044L77.6312 85.3004C78.0234 86.2706 79.0247 86.6912 79.8676 86.2398L91.6109 79.9512C92.4539 79.4998 92.8193 78.3473 92.4271 77.377L90.9332 73.681C90.541 72.7108 89.5397 72.2902 88.6968 72.7416L76.9535 79.0302C76.1105 79.4816 75.7451 80.6341 76.1373 81.6044Z" fill="#D1D3D4"/>
<path d="M58.201 91.1975L59.6949 94.8935C60.0871 95.8638 61.0884 96.2844 61.9313 95.833L73.6746 89.5443C74.5176 89.0929 74.883 87.9404 74.4908 86.9702L72.9969 83.2742C72.6047 82.3039 71.6034 81.8833 70.7605 82.3347L59.0172 88.6234C58.1742 89.0748 57.8088 90.2273 58.201 91.1975Z" fill="#D1D3D4"/>
<path d="M40.2769 100.796L41.7709 104.492C42.163 105.462 43.1643 105.883 44.0073 105.431L55.7506 99.1426C56.5935 98.6912 56.9589 97.5387 56.5668 96.5685L55.0728 92.8725C54.6806 91.9022 53.6794 91.4816 52.8364 91.933L41.0931 98.2217C40.2502 98.6731 39.8847 99.8256 40.2769 100.796Z" fill="#D1D3D4"/>
<path d="M171.071 53.0786C170.994 53.0795 170.918 53.0575 170.85 53.0149C170.782 52.9723 170.725 52.9104 170.684 52.8351L158.349 30.6C158.29 30.4823 158.273 30.3433 158.301 30.2116C158.33 30.0799 158.4 29.9657 158.499 29.8924C158.598 29.8191 158.718 29.7923 158.834 29.8176C158.95 29.8429 159.053 29.9183 159.121 30.0283L171.457 52.2634C171.523 52.3814 171.545 52.5245 171.519 52.6615C171.493 52.7984 171.421 52.918 171.319 52.9939C171.246 53.052 171.159 53.0817 171.071 53.0786V53.0786Z" fill="white"/>
<path d="M133.769 46.6199C133.684 46.6199 133.601 46.5933 133.528 46.5429C133.455 46.4926 133.395 46.4204 133.355 46.334L127.054 32.3259C127.025 32.2649 127.008 32.198 127.002 32.129C126.996 32.06 127.003 31.9904 127.021 31.9243C127.039 31.8582 127.068 31.7969 127.107 31.744C127.146 31.6911 127.193 31.6478 127.247 31.6165C127.301 31.5834 127.36 31.5628 127.42 31.5561C127.481 31.5493 127.542 31.5565 127.6 31.5772C127.658 31.5979 127.713 31.6317 127.759 31.6766C127.806 31.7215 127.845 31.7767 127.873 31.8389L134.174 45.847C134.23 45.9723 134.241 46.1177 134.204 46.2522C134.168 46.3866 134.088 46.4996 133.981 46.567C133.913 46.5986 133.842 46.6165 133.769 46.6199Z" fill="white"/>
<path d="M31.0087 128.71L27.1543 133.803C24.6982 137.339 16.8884 134.861 9.73163 128.244C2.5749 121.626 -1.25183 113.431 1.23187 109.884L5.0954 104.791L31.0087 128.71Z" fill="white"/>
<path d="M23.5114 135.952C19.8318 135.952 14.5241 133.337 9.43709 128.657C6.20846 125.79 3.49634 122.226 1.45246 118.164C-0.249338 114.49 -0.460909 111.441 0.845333 109.556L4.71806 104.442C4.79627 104.339 4.90602 104.275 5.02432 104.263C5.14263 104.251 5.26033 104.292 5.35279 104.378L31.2936 128.254C31.3434 128.297 31.3848 128.351 31.4149 128.413C31.4451 128.475 31.4633 128.544 31.4684 128.614C31.4785 128.76 31.4389 128.904 31.358 129.017L27.4945 134.11C26.9972 134.747 26.3795 135.244 25.689 135.564C24.9985 135.883 24.2535 136.016 23.5114 135.952ZM5.11361 105.522L1.55364 110.255C0.51417 111.748 0.771743 114.49 2.26196 117.666C4.24594 121.607 6.88024 125.064 10.0166 127.842C16.8514 134.194 24.5325 136.725 26.7954 133.485L30.3462 128.784L5.11361 105.522Z" fill="#231F20"/>
<path d="M31.0053 128.701C33.4633 125.168 29.6472 116.95 22.4816 110.344C15.316 103.739 7.51449 101.248 5.05643 104.781C2.59837 108.314 6.41457 116.532 13.5801 123.138C20.7457 129.743 28.5472 132.234 31.0053 128.701Z" fill="white"/>
<path d="M27.3657 130.849C23.6861 130.849 18.3692 128.233 13.3006 123.564C10.0668 120.7 7.35121 117.135 5.30673 113.071C3.60494 109.397 3.39336 106.348 4.70881 104.463C6.01505 102.578 8.65513 102.144 12.1323 103.256C16.0246 104.663 19.6402 106.932 22.7754 109.937C30.2541 116.83 34.0257 125.216 31.3672 128.996C30.8675 129.636 30.247 130.136 29.5533 130.457C28.8597 130.778 28.1113 130.912 27.3657 130.849ZM8.70113 103.722C8.09909 103.656 7.49196 103.748 6.92496 103.99C6.35796 104.232 5.84569 104.618 5.42632 105.119V105.119C4.36845 106.634 4.62602 109.355 6.12543 112.531C8.1067 116.471 10.7378 119.928 13.8709 122.706C20.7057 129.059 28.3959 131.59 30.6497 128.35C32.9034 125.11 29.0399 117.031 22.1959 110.731C19.1601 107.815 15.6566 105.614 11.8839 104.251C10.8489 103.909 9.77806 103.731 8.70113 103.722Z" fill="#231F20"/>
<path d="M12.0035 107.692L13.6869 109.535H13.88C14.4228 109.651 14.9379 109.736 15.4898 109.895C16.9402 110.341 18.3105 111.08 19.5373 112.076C20.3044 112.675 21.0002 113.387 21.6071 114.193C21.9885 114.63 22.2424 115.193 22.3338 115.803C22.3526 116.019 22.3132 116.236 22.2211 116.426C22.1289 116.615 21.9885 116.767 21.8187 116.862C21.5519 117.073 21.2575 117.264 20.9632 117.476L24.1276 120.938C24.6703 120.493 24.4311 119.742 23.686 118.82L25.627 118.439C26.2174 119.029 26.6991 119.749 27.0436 120.557C27.1899 120.861 27.2532 121.208 27.2253 121.554C27.1974 121.899 27.0796 122.227 26.8872 122.495C26.6941 122.738 26.4273 122.95 26.1881 123.193L27.338 124.453L25.4982 125.12L24.3208 123.839C23.7504 123.839 23.2169 123.839 22.6282 123.839C21.4933 123.714 20.3872 123.356 19.3626 122.78C17.9726 122.074 16.721 121.051 15.683 119.773C14.6251 118.439 14.3952 117.391 15.0483 116.682C15.4845 116.25 15.9911 115.922 16.5385 115.718L16.7593 115.623L13.5489 112.129H13.4569C13.3841 112.354 13.3347 112.589 13.3097 112.828C13.4142 113.306 13.6496 113.733 13.9812 114.045L10.9732 114.257C10.734 113.961 10.4948 113.675 10.2833 113.389C9.51056 112.33 9.2162 111.451 9.45537 110.763C9.61278 110.43 9.84007 110.149 10.1165 109.943C10.3929 109.738 10.7095 109.616 11.0376 109.588C11.1388 109.588 11.1388 109.524 11.0376 109.408C10.458 108.794 9.88771 108.169 9.31738 107.544L12.0035 107.692ZM19.2706 118.386C18.9854 118.651 18.6175 118.852 18.691 119.35C18.7646 119.848 19.7673 120.885 20.6964 121.245C21.1534 121.433 21.6372 121.519 22.1222 121.499L19.2706 118.386ZM18.5347 114.839C18.783 114.681 19.0314 114.553 19.0682 114.268C19.1326 113.738 18.1483 112.732 17.1364 112.309C16.7041 112.118 16.2901 112.012 15.8118 111.853L18.5347 114.839Z" fill="#D1D3D4"/>
<path d="M60.9139 182.434L63.1676 188.67C64.8234 192.779 59.4236 199.714 51.1078 204.182C42.7921 208.65 34.697 208.925 33.032 204.828L30.7783 198.581L60.9139 182.434Z" fill="white"/>
<path d="M39.0667 208.269C35.8563 208.269 33.483 207.21 32.6275 205.093L30.3645 198.835C30.32 198.708 30.3189 198.566 30.3616 198.439C30.4043 198.311 30.4875 198.207 30.5945 198.147L60.7301 182C60.7865 181.971 60.8477 181.956 60.9095 181.956C60.9713 181.956 61.0324 181.971 61.0888 182C61.1468 182.027 61.1994 182.067 61.2436 182.118C61.2879 182.169 61.3228 182.23 61.3464 182.296L63.6001 188.533C65.3847 192.948 59.9942 200.063 51.3104 204.722C47.4889 206.875 43.3183 208.083 39.0667 208.269V208.269ZM31.3764 198.846L33.4554 204.616C34.9732 208.364 42.967 207.951 50.9333 203.695C58.8995 199.439 64.29 192.662 62.763 188.872L60.6933 183.122L31.3764 198.846Z" fill="#231F20"/>
<path d="M48.8464 197.943C57.1686 193.483 62.5694 186.54 60.9095 182.437C59.2495 178.334 51.1573 178.624 42.8351 183.085C34.513 187.545 29.1122 194.488 30.7721 198.591C32.4321 202.694 40.5242 202.404 48.8464 197.943Z" fill="white"/>
<path d="M36.7855 202.011C33.4739 202.011 31.2018 200.889 30.3463 198.835C28.5065 194.409 33.943 187.283 42.6268 182.635C51.3105 177.987 59.5159 177.807 61.3097 182.243C63.1035 186.68 57.7129 193.795 49.0292 198.454C45.3619 200.512 41.3812 201.727 37.3098 202.033L36.7855 202.011ZM54.9349 180.136C50.8009 180.332 46.7473 181.515 43.0315 183.609C35.0929 187.844 29.6747 194.642 31.1925 198.433C31.9101 200.19 34.1546 201.122 37.3006 201.016C41.2489 200.721 45.1086 199.537 48.6612 197.533C56.5999 193.297 62.018 186.5 60.491 182.709C59.7919 180.93 57.7313 180.136 54.9349 180.136Z" fill="#231F20"/>
<path d="M36.1137 192.715L38.2939 191.794L38.4135 191.614C38.7446 191.106 39.0298 190.555 39.4069 190.11C40.4015 188.824 41.5846 187.749 42.9025 186.934C43.7125 186.411 44.5784 186.013 45.4782 185.748C45.9894 185.557 46.54 185.557 47.0512 185.748C47.2192 185.828 47.363 185.962 47.4645 186.136C47.566 186.309 47.6206 186.513 47.6215 186.722C47.6215 187.093 47.6859 187.485 47.7135 187.876L51.8162 186.15C51.7058 185.388 51.0251 185.303 49.9765 185.663L50.5376 183.546C51.2701 183.201 52.0551 183.028 52.8465 183.038C53.1516 183.021 53.4536 183.114 53.7107 183.303C53.9679 183.493 54.1673 183.77 54.2815 184.096C54.381 184.443 54.4609 184.797 54.5207 185.155L56.0109 184.53L55.7166 186.722L54.1987 187.379C53.9412 187.961 53.7204 188.522 53.426 189.115C52.8353 190.232 52.0751 191.219 51.1815 192.027C50.0214 193.149 48.6713 193.982 47.2168 194.473C45.7082 194.981 44.7975 194.748 44.5307 193.763C44.3874 193.124 44.3562 192.458 44.4387 191.804C44.4387 191.709 44.4387 191.614 44.4387 191.529L40.2992 193.297L40.2256 193.372C40.3659 193.548 40.5269 193.701 40.704 193.827C41.1208 193.936 41.5574 193.884 41.9458 193.679L40.7776 196.855C40.4372 196.971 40.1153 197.088 39.8025 197.173C38.6342 197.511 37.8155 197.427 37.3832 196.866C37.199 196.56 37.0832 196.207 37.0463 195.837C37.0094 195.468 37.0524 195.094 37.1716 194.748C37.1716 194.642 37.1716 194.621 37.0244 194.684L34.8075 195.627L36.1137 192.715ZM47.6675 189.962C47.7503 190.375 47.7411 190.841 48.1551 191.021C48.6028 191.015 49.0446 190.903 49.4529 190.692C49.8613 190.48 50.2274 190.174 50.5284 189.793C50.8773 189.402 51.1583 188.939 51.3563 188.427L47.6675 189.962ZM44.5767 189.147C44.5767 188.829 44.5767 188.501 44.3651 188.342C43.988 188.046 42.7737 188.607 41.9826 189.465C41.6515 189.825 41.3847 190.206 41.0627 190.629L44.5767 189.147Z" fill="#D1D3D4"/>
<path d="M38.8827 143.47C35.6079 149.748 39.2783 163.661 39.2783 163.661L44.1261 167.727C45.8542 168.924 47.7701 169.717 49.7644 170.061C51.7587 170.405 53.7924 170.294 55.7494 169.733C57.7063 169.173 59.5482 168.174 61.1699 166.795C62.7916 165.415 64.1612 163.681 65.2007 161.692C66.2402 159.703 66.9292 157.498 67.2283 155.202C67.5273 152.907 67.4306 150.566 66.9438 148.313C66.4569 146.061 65.5893 143.941 64.3906 142.074C63.1918 140.207 61.6854 138.631 59.9574 137.434L54.5852 134.396C54.5852 134.396 42.1575 137.201 38.8827 143.47Z" fill="white"/>
<path d="M52.0096 170.787C49.15 170.781 46.3455 169.881 43.8961 168.182L39.0023 164.095C38.9232 164.026 38.8652 163.93 38.8368 163.82C38.6804 163.238 35.1572 149.6 38.4872 143.194C41.8356 136.841 53.9597 133.993 54.4749 133.877C54.568 133.846 54.6669 133.846 54.76 133.877L60.1506 136.916C63.1182 138.964 65.4204 142.077 66.7045 145.776C67.9885 149.474 68.1836 153.556 67.2598 157.395C66.3361 161.233 64.3444 164.617 61.5899 167.029C58.8355 169.44 55.4701 170.745 52.0096 170.745V170.787ZM39.6739 163.375L44.4021 167.325C47.7872 169.652 51.8362 170.34 55.661 169.236C59.4858 168.132 62.7742 165.328 64.8052 161.438C66.836 157.542 67.441 152.877 66.4873 148.469C65.5336 144.06 63.0991 140.266 59.7182 137.921L54.5025 134.989C53.095 135.327 42.2219 138.165 39.2783 143.777C36.3347 149.431 39.2783 161.755 39.6739 163.344V163.375Z" fill="#231F20"/>
<path d="M48.698 167.939C57.1772 167.939 64.0509 160.027 64.0509 150.267C64.0509 140.507 57.1772 132.596 48.698 132.596C40.2188 132.596 33.3451 140.507 33.3451 150.267C33.3451 160.027 40.2188 167.939 48.698 167.939Z" fill="white"/>
<path d="M48.6704 168.489C46.2354 168.482 43.8348 167.827 41.6557 166.577C39.4766 165.326 37.5779 163.513 36.1076 161.279C34.6373 159.045 33.635 156.45 33.179 153.697C32.723 150.944 32.8256 148.107 33.4787 145.407C34.1318 142.707 35.3178 140.217 36.9443 138.131C38.5708 136.045 40.5938 134.42 42.8556 133.382C45.1175 132.344 47.557 131.921 49.9841 132.146C52.4112 132.372 54.7603 133.239 56.8482 134.681V134.681C59.8166 136.732 62.1184 139.846 63.4006 143.547C64.6827 147.249 64.8742 151.332 63.9457 155.17C63.0172 159.009 61.02 162.391 58.2606 164.797C55.5012 167.203 52.1321 168.5 48.6704 168.489V168.489ZM48.7256 133.146C45.1225 133.14 41.6395 134.637 38.9224 137.361C36.2052 140.085 34.438 143.85 33.9483 147.959C33.4587 152.068 34.2797 156.241 36.2594 159.707C38.239 163.172 41.243 165.694 44.7145 166.804C48.186 167.915 51.8896 167.54 55.1389 165.747C58.3883 163.955 60.963 160.868 62.3858 157.058C63.8086 153.247 63.9831 148.973 62.8769 145.026C61.7708 141.079 59.4589 137.727 56.3699 135.592C54.0627 133.989 51.4207 133.136 48.7256 133.125V133.146Z" fill="#231F20"/>
<path d="M40.088 142.167L42.0014 143.501C42.1301 143.586 42.1945 143.576 42.2865 143.448C43.0376 142.487 43.9866 141.759 45.0462 141.331C46.1519 140.882 47.362 140.912 48.4498 141.416C48.7441 141.553 49.0293 141.712 49.3697 141.871L47.5851 145.28C47.136 144.976 46.6106 144.857 46.0949 144.941C45.6986 145.06 45.3085 145.205 44.9266 145.375V145.46L48.6061 148.023L48.8729 147.705C49.514 146.906 50.2333 146.196 51.0162 145.587C51.5929 145.109 52.2719 144.821 52.9802 144.754C53.6885 144.687 54.3993 144.843 55.0362 145.206C56.2748 145.787 57.2658 146.905 57.7958 148.319C58.2325 149.468 58.342 150.747 58.1086 151.972C57.9706 152.734 57.7498 153.486 57.5567 154.27L58.9917 155.265L57.3543 158.441L55.8825 157.382C55.3949 157.912 54.9626 158.441 54.4934 158.907C53.5796 159.829 52.4228 160.37 51.2094 160.442C50.1658 160.472 49.1381 160.144 48.2566 159.5L50.0044 156.144C50.5228 156.472 51.1207 156.595 51.7059 156.494C52.2911 156.392 52.831 156.072 53.2424 155.582L49.2777 152.851C48.7901 153.37 48.3026 153.91 47.8058 154.418C47.2237 155.062 46.5129 155.531 45.7361 155.784C44.9383 156.013 44.098 155.946 43.3352 155.593C42.3838 155.211 41.5432 154.533 40.9067 153.634C40.4504 152.983 40.1241 152.224 39.9509 151.412C39.7776 150.6 39.7616 149.753 39.904 148.933C40.0144 148.266 40.2444 147.62 40.4099 146.974C40.4099 146.9 40.4099 146.826 40.4835 146.741L38.4966 145.365L40.088 142.167ZM54.8798 152.395C55.0926 151.84 55.1628 151.227 55.0822 150.627C54.9998 150.117 54.7575 149.66 54.4014 149.341C54.0453 149.023 53.6002 148.867 53.1504 148.901C52.5139 149.103 51.9379 149.502 51.4854 150.055L54.8798 152.395ZM42.9672 148.446C42.9018 148.965 42.871 149.489 42.8752 150.013C42.8957 150.297 42.9696 150.572 43.0919 150.82C43.2141 151.067 43.3818 151.281 43.5832 151.446C43.7846 151.611 44.0149 151.724 44.258 151.777C44.5012 151.829 44.7513 151.82 44.991 151.75C45.4753 151.506 45.9083 151.145 46.2604 150.691L42.9672 148.446Z" fill="#D1D3D4"/>
</svg>
