<svg width="191" height="229" viewBox="0 0 191 229" fill="none" xmlns="http://www.w3.org/2000/svg">
<defs>
<linearGradient id="paint0_linear_70_333" x1="109.797" y1="68.9159" x2="132.055" y2="68.5954" gradientUnits="userSpaceOnUse">
<stop offset="0.01"/>
<stop offset="0.13" stop-opacity="0.69"/>
<stop offset="1" stop-opacity="0"/>
</linearGradient>
<linearGradient id="paint1_linear_70_333" x1="41695.6" y1="6754.17" x2="18718.9" y2="39963.8" gradientUnits="userSpaceOnUse">
<stop offset="0.01"/>
<stop offset="0.13" stop-opacity="0.69"/>
<stop offset="1" stop-opacity="0"/>
</linearGradient>
<linearGradient id="paint2_linear_70_333" x1="11388.4" y1="13485.2" x2="6234.61" y2="16624.1" gradientUnits="userSpaceOnUse">
<stop offset="0.01"/>
<stop offset="0.13" stop-opacity="0.69"/>
<stop offset="1" stop-opacity="0"/>
</linearGradient>
<linearGradient id="paint3_linear_70_333" x1="2622.55" y1="5573.79" x2="4909.22" y2="6335.71" gradientUnits="userSpaceOnUse">
<stop offset="0.01"/>
<stop offset="0.13" stop-opacity="0.69"/>
<stop offset="1" stop-opacity="0"/>
</linearGradient>
<linearGradient id="paint4_linear_70_333" x1="11689.6" y1="15915.6" x2="16512.5" y2="15915.6" gradientUnits="userSpaceOnUse">
<stop offset="0.01"/>
<stop offset="0.13" stop-opacity="0.69"/>
<stop offset="1" stop-opacity="0"/>
</linearGradient>
<linearGradient id="paint5_linear_70_333" x1="5584.13" y1="5657.52" x2="5130.93" y2="5537.06" gradientUnits="userSpaceOnUse">
<stop offset="0.01"/>
<stop offset="0.13" stop-opacity="0.69"/>
<stop offset="1" stop-opacity="0"/>
</linearGradient>
<linearGradient id="paint6_linear_70_333" x1="4505.06" y1="8036.37" x2="4896.63" y2="8036.37" gradientUnits="userSpaceOnUse">
<stop offset="0.01"/>
<stop offset="0.13" stop-opacity="0.69"/>
<stop offset="1" stop-opacity="0"/>
</linearGradient>
<linearGradient id="paint7_linear_70_333" x1="812.031" y1="979.206" x2="965.635" y2="1017.95" gradientUnits="userSpaceOnUse">
<stop offset="0.01"/>
<stop offset="0.13" stop-opacity="0.69"/>
<stop offset="1" stop-opacity="0"/>
</linearGradient>
<linearGradient id="paint8_linear_70_333" x1="1898.23" y1="2191.71" x2="1514.97" y2="2231.05" gradientUnits="userSpaceOnUse">
<stop offset="0.01"/>
<stop offset="0.13" stop-opacity="0.69"/>
<stop offset="1" stop-opacity="0"/>
</linearGradient>
<linearGradient id="paint9_linear_70_333" x1="2361.67" y1="6337.14" x2="3129.94" y2="6329.72" gradientUnits="userSpaceOnUse">
<stop offset="0.01"/>
<stop offset="0.13" stop-opacity="0.69"/>
<stop offset="1" stop-opacity="0"/>
</linearGradient>
<linearGradient id="paint10_linear_70_333" x1="12604" y1="18229.3" x2="16592.4" y2="17036.1" gradientUnits="userSpaceOnUse">
<stop offset="0.01"/>
<stop offset="0.13" stop-opacity="0.69"/>
<stop offset="1" stop-opacity="0"/>
</linearGradient>
</defs>
<path opacity="0.18" d="M189.672 82.1804C191.041 87.9584 191.206 93.9856 190.158 99.8392C189.11 105.693 186.873 111.231 183.603 116.065C178.722 123.148 171.764 128.445 167.431 135.904C158.065 152.007 163.092 173.997 154.502 190.587C147.321 204.464 132.445 211.282 118.631 217.133C107.785 221.724 96.8292 226.344 85.3317 228.195C73.8341 230.045 61.4687 228.871 51.506 222.493C43.2895 217.249 37.2533 208.934 31.6781 200.631C17.9732 180.202 5.58613 157.957 1.37758 133.244C-2.83097 108.53 2.41887 80.81 19.6761 63.7118C28.0769 55.3853 39.081 49.6435 45.0088 39.1717C51.2294 28.1854 51.3162 12.8565 60.9861 5.20077C64.5547 2.37323 68.991 1.06065 73.3948 0.436162C83.997 -1.01884 94.7574 1.18811 104.097 6.73308C113.571 12.3939 121.348 21.3912 131.669 25.0109C145.027 29.7003 162.17 26.098 171.048 39.9755C178.18 51.1353 186.505 69.1818 189.672 82.1804Z" fill="#68E1FD"/>
<path d="M132.835 74.2818C132.68 74.6306 132.469 74.9476 132.211 75.2186C130.144 77.5464 127.469 79.1581 124.532 79.8444C123.495 80.0991 122.434 80.2271 121.37 80.226C120.746 75.9356 120.112 71.6393 119.624 67.3315C119.239 63.9662 118.951 60.6067 118.816 57.2298C118.723 55.1135 114.423 47.7353 115.301 45.7578C116.272 43.5836 123.263 51.0254 124.049 52.4421C128.415 60.2482 129.982 66.2849 132.976 72.9982C133.089 73.4291 133.039 73.8904 132.835 74.2818V74.2818Z" fill="#68E1FD"/>
<path d="M125.237 79.058C125.028 79.3485 124.791 79.6158 124.532 79.856C123.495 80.1106 122.434 80.2387 121.37 80.2376C120.746 75.9471 120.112 71.6509 119.624 67.3431C119.808 63.9585 120.143 60.5874 120.627 57.2298C120.421 58.6349 122.043 61.6996 122.482 63.0757L124.385 69.072C125.378 72.2002 127.498 76.005 125.237 79.058Z" fill="url(#paint0_linear_70_333)"/>
<path d="M122.9 86.3957C123.333 89.2174 123.887 92.0739 125.194 94.5718C125.866 95.8555 126.869 97.116 128.231 97.3415C128.988 97.4179 129.751 97.2968 130.454 96.9888C131.912 96.4542 133.287 95.6902 134.533 94.7222C135.723 93.7489 136.845 92.6841 137.89 91.5361C139.444 89.9725 140.881 88.2829 142.191 86.4824C142.792 85.6151 143.34 84.7015 143.996 83.8746C146.708 80.4341 151.047 78.8903 154.122 75.8199C154.952 74.9988 156.633 71.2403 156.508 70.0376C155.38 69.3437 153.064 72.1365 151.817 72.5413C150.57 72.9461 149.404 73.6053 148.151 73.9811C146.651 74.4271 145.068 74.449 143.557 74.0447C143.047 73.9059 142.44 65.3308 141.93 65.5274C141.674 65.6421 141.444 65.8158 141.258 66.0362C140.206 67.1927 139.631 77.0631 138.757 78.3467C137.559 80.0814 135.899 81.3998 134.256 82.6603C134.11 82.7702 133.925 82.8858 133.763 82.7991C133.709 82.7565 133.664 82.7028 133.63 82.6412C133.597 82.5796 133.575 82.5113 133.567 82.4406C133.139 80.7464 132.656 79.0637 132.13 77.4042C131.761 76.2478 131.241 74.9757 130.151 74.6287C129.18 74.3223 128.171 74.9063 127.303 75.4671C126.186 76.1957 125.058 76.9127 123.946 77.6471C123.328 78.0518 122.58 78.445 122.287 79.1909C121.929 80.0872 122.232 81.3246 122.335 82.244C122.498 83.6375 122.688 85.0195 122.9 86.3957Z" fill="#F5BCBA"/>
<path d="M132.797 165.041C132.797 166.81 132.716 168.55 132.569 170.279C131.304 185.075 124.757 198.787 114.28 208.583C103.803 218.379 90.1976 223.51 76.2739 222.916C62.3503 222.322 49.1725 216.049 39.4631 205.392C29.7536 194.735 24.2544 180.51 24.1016 165.654C24.1016 165.457 24.1016 165.266 24.1016 165.075C24.0298 157.417 25.3827 149.819 28.0818 142.722C30.781 135.624 34.7731 129.167 39.8271 123.725C44.8811 118.282 50.8969 113.962 57.5267 111.013C64.1564 108.065 71.2686 106.546 78.4521 106.546C85.6355 106.546 92.7477 108.065 99.3775 111.013C106.007 113.962 112.023 118.282 117.077 123.725C122.131 129.167 126.123 135.624 128.822 142.722C131.522 149.819 132.874 157.417 132.803 165.075L132.797 165.041Z" fill="#68E1FD"/>
<path d="M132.797 165.041C132.797 166.81 132.716 168.551 132.569 170.279C120.063 179.352 101.656 185.076 81.1285 185.076C57.2656 185.076 36.2988 177.345 24.1016 165.625C24.1016 165.428 24.1016 165.237 24.1016 165.046C24.0298 157.388 25.3827 149.79 28.0818 142.693C30.781 135.595 34.7731 129.138 39.8271 123.696C44.8811 118.253 50.8969 113.933 57.5267 110.984C64.1564 108.036 71.2686 106.517 78.4521 106.517C85.6355 106.517 92.7477 108.036 99.3775 110.984C106.007 113.933 112.023 118.253 117.077 123.696C122.131 129.138 126.123 135.595 128.822 142.693C131.522 149.79 132.874 157.388 132.803 165.046L132.797 165.041Z" fill="url(#paint1_linear_70_333)"/>
<path d="M103.37 142.386C105.539 143.218 107.898 143.814 109.677 145.392C111.255 146.786 112.215 148.804 112.991 150.822C115.577 157.594 116.51 164.955 115.703 172.216C115.486 174.148 115.16 176.137 115.632 177.999C116.104 179.861 117.715 181.607 119.526 181.376C122.037 176.056 122.091 169.846 122.097 163.89C122.097 159.542 122.097 155.101 120.73 151.001C119.613 147.624 117.639 144.641 115.6 141.802C108.164 131.393 99.1668 121.685 87.7126 117.007C87.2376 116.748 86.6921 116.676 86.1723 116.805C83.8132 117.724 84.1982 122.2 85.1148 123.998C86.4163 126.482 87.8655 128.875 89.4535 131.162C92.9371 136.301 97.7841 140.21 103.37 142.386V142.386Z" fill="url(#paint2_linear_70_333)"/>
<path d="M81.9203 129.318C81.9525 128.54 82.0469 127.766 82.2023 127.005C82.2858 126.627 82.465 126.281 82.7204 126.005C82.9758 125.728 83.2975 125.532 83.6504 125.438C83.9483 125.429 84.2454 125.4 84.5398 125.351C85.1418 125.154 85.3967 124.408 85.5703 123.767L87.4956 116.597C87.8643 115.209 88.2386 113.752 87.9565 112.347C87.5118 110.149 85.6191 108.663 83.7751 107.588C82.4355 106.801 80.9278 106.102 79.4364 106.397C77.126 106.853 75.7865 109.398 74.9241 111.728C73.9206 114.225 73.3033 116.879 73.0965 119.586C72.9446 122.714 72.6951 130.376 74.512 133.111C77.0284 136.95 81.519 132.787 81.9203 129.318Z" fill="url(#paint3_linear_70_333)"/>
<path d="M111.174 120.268C116.093 122.044 121.338 122.789 126.078 125.05C126.23 125.1 126.372 125.182 126.493 125.293C126.615 125.403 126.713 125.539 126.783 125.692C126.824 125.943 126.794 126.2 126.696 126.432C122.693 139.125 120.435 152.369 119.993 165.752C122.829 166.296 125.727 166.364 128.583 165.954C128.904 165.933 129.215 165.828 129.489 165.648C129.752 165.402 129.95 165.087 130.064 164.734C134.652 153.752 138.77 142.563 142.418 131.168C143.064 129.15 143.704 127.039 143.443 124.923C143.069 121.841 140.894 119.413 138.828 117.221L122.726 100.094C122.316 99.6016 121.814 99.2075 121.251 98.9375C120.603 98.732 119.918 98.6963 119.255 98.8334C112.904 99.6718 104.232 99.932 92.5611 99.4116C91.048 99.3422 98.5268 108.53 99.1505 110.294C99.6495 111.693 101.228 113.497 102.193 114.584C104.612 117.29 107.877 119.077 111.174 120.268Z" fill="#525263"/>
<path d="M111.174 120.268C116.093 122.044 121.338 122.789 126.078 125.05C126.23 125.1 126.372 125.182 126.493 125.293C126.615 125.403 126.713 125.539 126.783 125.692C126.824 125.943 126.794 126.2 126.696 126.432C122.693 139.125 120.435 152.369 119.993 165.752C122.829 166.296 125.727 166.364 128.583 165.954C128.904 165.933 129.215 165.828 129.489 165.648C129.752 165.402 129.95 165.087 130.064 164.734C134.652 153.752 138.77 142.563 142.418 131.168C143.064 129.15 143.704 127.039 143.443 124.923C143.069 121.841 140.894 119.413 138.828 117.221L122.726 100.094C122.316 99.6016 121.814 99.2075 121.251 98.9375C120.603 98.732 119.918 98.6963 119.255 98.8334C112.904 99.6718 104.232 99.932 92.5611 99.4116C91.048 99.3422 98.5268 108.53 99.1505 110.294C99.6495 111.693 101.228 113.497 102.193 114.584C104.612 117.29 107.877 119.077 111.174 120.268Z" fill="url(#paint4_linear_70_333)"/>
<path d="M119.168 173.344C118.773 173.999 118.506 174.733 118.382 175.501C118.093 176.845 117.879 178.206 117.742 179.577C117.633 180.641 117.595 181.798 118.165 182.671C118.734 183.544 119.673 183.862 120.551 184.226C122.763 185.197 124.912 186.323 126.983 187.597C128.383 188.418 129.841 189.268 131.436 189.332C133.03 189.396 134.793 188.465 135.156 186.811C135.282 186.015 135.219 185.198 134.972 184.434C134.101 181.117 132.394 178.117 130.037 175.761C129.623 175.331 129.163 174.956 128.665 174.645C128.187 174.382 127.687 174.165 127.173 173.997C125.725 173.432 124.24 172.978 122.731 172.639C121.413 172.413 120.079 171.997 119.168 173.344Z" fill="#2E2E3F"/>
<path d="M119.168 173.344C118.773 173.999 118.506 174.733 118.382 175.501C118.093 176.845 117.879 178.206 117.742 179.577C117.633 180.641 117.595 181.798 118.165 182.671C118.734 183.544 119.673 183.862 120.551 184.226C122.763 185.197 124.912 186.323 126.983 187.597C128.383 188.418 129.841 189.268 131.436 189.332C133.03 189.396 134.793 188.465 135.156 186.811C135.282 186.015 135.219 185.198 134.972 184.434C134.101 181.117 132.394 178.117 130.037 175.761C129.623 175.331 129.163 174.956 128.665 174.645C128.187 174.382 127.687 174.165 127.173 173.997C125.725 173.432 124.24 172.978 122.731 172.639C121.413 172.413 120.079 171.997 119.168 173.344Z" fill="url(#paint5_linear_70_333)"/>
<path d="M120.779 166.186C120.368 168.473 120.154 170.795 120.139 173.124C120.139 174.148 120.204 175.281 120.893 176.015C121.545 176.568 122.376 176.822 123.203 176.721C124.201 176.682 125.185 176.465 126.116 176.079C126.322 176.01 126.509 175.887 126.658 175.721C126.768 175.556 126.844 175.369 126.88 175.171C127.708 171.861 128.147 168.454 128.187 165.029C128.24 164.492 128.136 163.951 127.889 163.479C127.374 162.71 126.305 162.745 125.438 162.93C124.327 163.184 123.238 163.538 122.184 163.988C121.186 164.358 120.98 165.087 120.779 166.186Z" fill="#F5BCBA"/>
<path d="M131.474 177.056C131.866 178.084 132.185 179.141 132.428 180.219C132.597 181.058 132.694 181.954 133.199 182.625C133.838 183.463 134.95 183.677 135.964 183.694C136.8 183.745 137.636 183.595 138.41 183.255C138.813 183.086 139.15 182.776 139.365 182.376C139.516 181.981 139.568 181.55 139.517 181.127C139.438 178.189 138.75 175.307 137.505 172.685C136.79 171.33 135.986 170.031 135.097 168.799C134.816 168.245 134.343 167.83 133.779 167.643C133.489 167.632 133.2 167.683 132.929 167.793C132.658 167.903 132.41 168.07 132.201 168.285C131.306 169.002 129.337 170.198 129.543 171.557C129.803 173.367 130.866 175.339 131.474 177.056Z" fill="#F5BCBA"/>
<path d="M138.047 179.19C137.433 179.556 136.838 179.955 136.263 180.387C135.368 180.913 134.316 181.017 133.334 181.318C133.075 181.371 132.837 181.506 132.651 181.705C132.515 181.9 132.431 182.129 132.407 182.37C132.222 183.948 132.283 185.548 132.586 187.106C133.085 190.475 133.667 193.831 134.332 197.173C134.609 198.549 134.939 200 135.878 200.989C136.816 201.978 138.242 202.319 139.576 202.36C140.825 202.436 142.072 202.188 143.21 201.637C144.116 201.12 144.9 200.392 145.505 199.507C146.109 198.622 146.519 197.603 146.703 196.525C147.056 194.359 146.807 192.13 145.987 190.113C145.43 188.733 144.781 187.398 144.045 186.117C143.069 184.328 142.096 182.54 141.127 180.751C140.39 179.386 139.717 178.432 138.047 179.19Z" fill="#2E2E3F"/>
<path d="M138.047 179.19C137.433 179.556 136.838 179.955 136.263 180.387C135.368 180.913 134.316 181.017 133.334 181.318C133.075 181.371 132.837 181.506 132.651 181.705C132.515 181.9 132.431 182.129 132.407 182.37C132.222 183.948 132.283 185.548 132.586 187.106C133.085 190.475 133.667 193.831 134.332 197.173C134.609 198.549 134.939 200 135.878 200.989C136.816 201.978 138.242 202.319 139.576 202.36C140.825 202.436 142.072 202.188 143.21 201.637C144.116 201.12 144.9 200.392 145.505 199.507C146.109 198.622 146.519 197.603 146.703 196.525C147.056 194.359 146.807 192.13 145.987 190.113C145.43 188.733 144.781 187.398 144.045 186.117C143.069 184.328 142.096 182.54 141.127 180.751C140.39 179.386 139.717 178.432 138.047 179.19Z" fill="url(#paint6_linear_70_333)"/>
<path d="M72.3372 73.3509C71.8627 74.6239 71.5454 75.9573 71.3935 77.3175C70.8776 80.8395 70.5481 84.3897 70.4065 87.9511C70.1353 94.7511 70.5475 101.563 70.3685 108.363C70.1841 115.434 69.4031 122.766 71.7894 129.364C72.161 130.561 72.7886 131.65 73.6225 132.544C74.0445 132.984 74.5648 133.302 75.1342 133.468C75.7036 133.634 76.3033 133.642 76.8766 133.492C77.3953 133.279 77.861 132.942 78.2372 132.505C78.6135 132.069 78.8903 131.546 79.0459 130.977C79.3449 129.838 79.4766 128.656 79.4364 127.473L79.5232 121.008C79.5232 120.876 79.5232 120.719 79.6479 120.662C79.7002 120.642 79.7562 120.638 79.8105 120.649C79.8648 120.66 79.9153 120.687 79.9571 120.725C80.4237 121.155 80.8673 121.613 81.2858 122.096C81.7685 122.512 82.5386 122.714 82.967 122.234C83.0857 122.066 83.1697 121.873 83.2136 121.668C83.2575 121.462 83.2604 121.25 83.2219 121.043C82.9616 118.245 80.6729 116.227 79.3117 113.815C77.3484 110.346 77.3484 105.975 77.8419 101.938C78.4548 96.8848 79.7347 91.9525 81.0092 87.0375L82.0939 82.8801C82.9128 79.7229 83.7209 76.2767 82.5277 73.2525C82.0487 72.091 81.3191 71.0666 80.3983 70.2627C79.4775 69.4589 78.3916 68.8983 77.2291 68.6267C74.9621 68.1815 73.1561 71.3849 72.3372 73.3509Z" fill="#F5BCBA"/>
<path d="M122.688 99.6429C121.988 101.649 118.04 99.3076 115.784 100.51C111.478 102.823 106.564 100.447 101.765 100.51C96.6557 100.609 93.1305 105.975 88.0597 106.657C87.6911 106.738 87.311 106.738 86.9424 106.657C86.2428 106.437 85.8307 105.691 85.5324 104.992C85.0947 103.912 84.7815 102.78 84.5995 101.62C83.9704 97.7811 84.5995 93.6641 85.272 89.761C85.8361 86.4535 86.3983 83.1441 86.9587 79.8328C87.6095 75.978 88.2658 72.1 88.9274 68.1989C89.3133 65.6253 89.8568 63.0814 90.5544 60.5836C90.6846 60.1499 90.8202 59.7278 90.9666 59.3115C92.2282 55.9204 93.7501 52.6462 95.5168 49.5221C96.6015 47.5156 97.6862 45.4744 99.362 43.9537C101.233 42.2711 103.646 41.4326 106.071 41.0279C108.251 40.5897 110.499 40.7287 112.617 41.4326C113.826 41.8836 114.282 43.2483 115.242 44.0867C116.459 45.0479 117.545 46.1843 118.469 47.4636C119.407 49.008 120.078 50.7198 120.448 52.5173C123.849 66.6145 118.93 81.8219 122.162 95.9596C122.531 97.6191 123.247 98.0586 122.688 99.6429Z" fill="#68E1FD"/>
<path d="M118.067 50.1234L118.49 53.0781L116.863 52.1125V59.9417L115.009 51.2451L116.804 48.4581L118.067 50.1234Z" fill="url(#paint7_linear_70_333)"/>
<path d="M104.292 49.9326L105.317 50.5108L106.944 52.02L102.605 64.4288C102.605 64.4288 108.907 54.0901 109.113 48.8166C109.241 45.5728 108.861 42.329 107.991 39.218L104.292 49.9326Z" fill="url(#paint8_linear_70_333)"/>
<path d="M90.3971 85.4994C90.0527 88.3402 90.0527 91.2165 90.3971 94.0572C90.6194 95.844 90.9774 97.6249 90.8635 99.4174C90.8687 99.7677 90.7637 100.11 90.5652 100.389C90.3105 100.61 89.9979 100.741 89.6703 100.765C87.9746 101.05 86.2771 101.341 84.5778 101.638C83.9487 97.7984 84.5778 93.6814 85.2503 89.7783C85.8143 86.4709 86.3765 83.1615 86.9369 79.8501C87.5878 75.9953 88.244 72.1173 88.9056 68.2162C89.2915 65.6426 89.835 63.0987 90.5327 60.6009C90.6628 60.1672 90.7984 59.7451 90.9448 59.3288C92.6261 58.3342 94.9636 57.5941 96.0049 59.2016C97.0895 60.9363 95.6632 64.9839 95.2402 66.7186C93.6999 73.0039 91.1726 79.0117 90.3971 85.4994Z" fill="url(#paint9_linear_70_333)"/>
<path d="M129.408 35.367C129.464 36.086 129.444 36.8095 129.348 37.5238C129.293 37.8799 129.126 38.2055 128.875 38.4472C128.624 38.6889 128.303 38.8322 127.965 38.8537C126.273 38.7207 125.053 40.4496 123.708 41.5598C122.652 42.4029 121.4 42.9196 120.087 43.0532C118.774 43.1868 117.453 42.9322 116.267 42.3173C116.031 42.227 115.772 42.2366 115.543 42.3442C115.314 42.4518 115.132 42.6492 115.036 42.8955C114.866 43.4056 114.829 43.9548 114.927 44.4856L115.551 50.8115C115.67 52.0315 115.681 53.5234 114.71 54.1826C113.739 54.8417 112.59 54.2693 111.787 53.5234C110.525 52.2296 109.613 50.5979 109.146 48.7992C108.085 45.1549 107.933 41.279 108.704 37.553C109.476 33.8269 111.144 30.3793 113.544 27.5493C114.445 26.4753 115.502 25.5617 116.673 24.8432C117.9 24.1645 119.217 23.6906 120.578 23.4381C121.797 23.1315 123.056 23.0571 124.299 23.2184C125.967 23.5419 127.485 24.4567 128.605 25.8146C129.429 26.7745 130.232 29.6367 131.1 30.1051C130.454 31.8513 129.435 33.3952 129.408 35.367Z" fill="#F5BCBA"/>
<path d="M116.5 10.5378C115.705 10.3395 114.875 10.3654 114.092 10.613C112.563 11.1912 111.706 12.897 111.152 14.5218C110.599 16.1466 110.144 17.9218 108.94 19.0725C107.904 20.067 106.434 20.466 105.501 21.5646C104.417 22.8425 104.314 24.7333 104.417 26.4507C104.417 27.7391 104.757 29.0015 105.398 30.0935C105.973 30.9262 106.857 31.5044 107.307 32.4064C107.817 33.4415 107.991 35.0432 109.086 35.1125C109.543 35.0879 109.974 34.8816 110.296 34.5343C111.403 33.5138 112.237 32.1992 112.714 30.7238C112.98 29.9027 113.154 28.9891 113.739 28.4109C114.325 27.8326 115.518 27.7979 115.784 28.619C115.859 29.1414 115.783 29.6757 115.567 30.1513C115.426 30.6602 115.486 31.3483 115.952 31.5217C116.831 30.0762 117.324 28.3762 118.366 27.0636C118.956 26.3254 119.698 25.7411 120.533 25.3556C121.369 24.97 122.276 24.7933 123.185 24.8391C124.094 24.8848 124.981 25.1518 125.779 25.6196C126.576 26.0873 127.263 26.7435 127.786 27.5377C128.328 28.3646 128.697 29.3476 129.456 29.9374C130.172 30.402 130.989 30.6573 131.826 30.6775C133.692 30.8741 135.666 30.9493 137.347 30.0646C139.029 29.1799 140.271 27.0347 139.625 25.1554C139.115 23.681 137.662 22.8425 136.252 22.3684C134.842 21.8942 133.334 21.6572 132.092 20.8129C130.405 19.6565 129.505 17.598 128.524 15.7303C127.542 13.8626 126.213 11.9429 124.25 11.5035C123.448 11.3705 122.633 11.3705 121.831 11.5035C121.049 11.6803 120.249 11.7464 119.45 11.7001C118.474 11.4861 117.53 10.7807 116.5 10.5378Z" fill="#2E2E3F"/>
<path d="M116.5 58.0509C117.738 64.7401 118.103 71.5798 117.585 78.3757C117.156 84.0308 116.137 89.6454 116.174 95.3178C116.254 96.913 116.209 98.5126 116.039 100.1C115.8 101.673 105.908 101.071 104.465 101.054C102.036 101.019 105.116 104.523 103.289 102.835C100.42 100.169 99.1396 96.0117 98.7871 91.9756C98.2827 86.2222 99.3891 80.4631 100.593 74.8253C101.428 70.9223 102.318 67.0077 103.815 63.3359C105.669 58.7968 108.603 53.0203 109.547 48.169C109.683 47.4578 107.378 44.8731 108.37 44.9078C109.016 44.9078 108.712 45.9775 108.826 46.5095C109.029 47.3195 109.419 48.0628 109.959 48.6721C110.716 49.6138 111.74 50.2657 112.877 50.5282C113.609 50.6727 114.444 50.638 114.976 51.1931C115.621 51.8639 115.518 53.1707 115.703 54.0843C115.968 55.3911 116.25 56.7152 116.5 58.0509Z" fill="#F2F2F2"/>
<path d="M94.5406 40.8486C91.9156 42.1323 89.6595 44.1214 87.5281 46.203C85.7639 47.8979 84.0977 49.7053 82.5386 51.6152C81.1611 53.3499 79.9028 55.1482 78.4494 56.7846C76.4427 59.0339 73.9371 61.208 73.5412 64.3016C73.42 65.9147 73.685 67.5342 74.3113 69.0084C74.8274 70.5135 75.5894 71.9093 76.562 73.1311C77.7961 74.5866 79.4242 75.597 81.2207 76.0223C81.7838 76.1787 82.3716 76.2063 82.9453 76.1032C83.7534 75.858 84.4964 75.4144 85.1147 74.808C86.5285 73.6673 87.8676 72.4251 89.1226 71.09C90.4025 69.6733 91.4872 68.0601 92.7346 66.6087C93.8192 65.3597 94.9744 64.2322 96.0591 63.0063C97.3553 61.5376 98.5105 59.9359 99.6657 58.3342C101.3 56.1617 102.798 53.8766 104.151 51.4938C105.28 49.3909 106.178 47.1556 106.825 44.8326C107.242 43.3176 107.909 41.3979 106.467 40.3051C103.402 38.0037 97.5939 39.3279 94.5406 40.8486Z" fill="#68E1FD"/>
<path d="M94.5406 40.8486C91.9156 42.1323 89.6595 44.1214 87.5281 46.203C85.7639 47.8979 84.0977 49.7053 82.5386 51.6152C81.1611 53.3499 79.9028 55.1482 78.4494 56.7846C76.4427 59.0339 73.9371 61.208 73.5412 64.3016C73.42 65.9147 73.685 67.5342 74.3113 69.0084C74.8274 70.5135 75.5894 71.9093 76.562 73.1311C77.7961 74.5866 79.4242 75.597 81.2207 76.0223C81.7838 76.1787 82.3716 76.2063 82.9453 76.1032C83.7534 75.858 84.4964 75.4144 85.1147 74.808C86.5285 73.6673 87.8676 72.4251 89.1226 71.09C90.4025 69.6733 91.4872 68.0601 92.7346 66.6087C93.8192 65.3597 94.9744 64.2322 96.0591 63.0063C97.3553 61.5376 98.5105 59.9359 99.6657 58.3342C101.3 56.1617 102.798 53.8766 104.151 51.4938C105.28 49.3909 106.178 47.1556 106.825 44.8326C107.242 43.3176 107.909 41.3979 106.467 40.3051C103.402 38.0037 97.5939 39.3279 94.5406 40.8486Z" fill="#68E1FD"/>
<path d="M140.005 67.2506C139.418 67.6455 138.999 68.2685 138.836 68.9874C138.673 69.7063 138.779 70.4646 139.132 71.1016C140.042 72.7903 141.263 74.2654 142.722 75.4383C143.59 76.4328 145.542 76.5947 147.278 75.5077C149.013 74.4206 157.295 69.6155 161.433 66.4757C161.736 66.2532 161.994 65.9672 162.191 65.6349C162.387 65.3027 162.518 64.9312 162.575 64.5433C162.633 64.1553 162.615 63.759 162.524 63.3784C162.433 62.9978 162.27 62.6411 162.046 62.3298L158.58 57.704C158.169 57.1565 157.583 56.79 156.935 56.6748C156.286 56.5595 155.621 56.7037 155.066 57.0795L140.005 67.2506Z" fill="#3D3D54"/>
<path d="M84.9629 117.088C85.5748 119.483 86.6602 121.711 88.1465 123.622C89.7735 125.646 91.9862 127.091 94.1122 128.468L103.066 134.279C104.379 135.084 105.635 135.99 106.825 136.991C109.759 139.57 111.706 143.166 113.598 146.682L126.658 170.95C127.32 172.193 128.247 173.598 129.587 173.552C130.308 173.452 130.986 173.131 131.539 172.627C133.215 171.372 135.015 169.944 135.514 167.822C135.861 166.342 135.514 164.786 135.097 163.318C133.09 156.084 129.945 149.272 126.788 142.501C121.773 131.785 116.684 121.089 111.521 110.415C110.149 107.582 108.484 103.17 106.217 101.089C106.217 101.089 85.1527 99.7239 84.6213 101.95C83.4375 106.935 83.5556 112.17 84.9629 117.088V117.088Z" fill="#525263"/>
<path d="M84.9629 117.088C85.5748 119.483 86.6602 121.711 88.1465 123.622C89.7735 125.646 91.9862 127.091 94.1122 128.468L103.066 134.279C104.379 135.084 105.635 135.99 106.825 136.991C109.759 139.57 111.706 143.166 113.598 146.682L126.658 170.95C127.32 172.193 128.247 173.598 129.587 173.552C130.308 173.452 130.986 173.131 131.539 172.627C133.215 171.372 135.015 169.944 135.514 167.822C135.861 166.342 135.514 164.786 135.097 163.318C133.09 156.084 129.945 149.272 126.788 142.501C121.773 131.785 116.684 121.089 111.521 110.415C110.149 107.582 108.484 103.17 106.217 101.089C106.217 101.089 85.1527 99.7239 84.6213 101.95C83.4375 106.935 83.5556 112.17 84.9629 117.088V117.088Z" fill="url(#paint10_linear_70_333)"/>
<path d="M108.652 37.6799L105.675 38.9346L103.869 49.707L109.872 49.4179L108.652 37.6799Z" fill="#68E1FD"/>
<path d="M114.954 49.1577C114.954 49.6435 114.954 50.1292 114.954 50.6149C114.954 50.8254 114.965 51.0359 114.987 51.2451C115.019 51.4576 115.063 51.668 115.117 51.8754L115.865 55.021L116.175 49.9094C117.059 50.3662 117.964 50.7826 118.886 51.1468C118.817 50.3808 118.634 49.6314 118.344 48.9264C117.802 47.4462 117.303 45.9601 116.717 44.5088C116.58 44.1211 116.382 43.7613 116.131 43.4448C116.005 43.2879 115.846 43.1645 115.667 43.0842C115.488 43.0039 115.294 42.969 115.101 42.9823C114.558 43.2251 114.9 45.3935 114.905 45.8734L114.954 49.1577Z" fill="#68E1FD"/>
<path d="M158.829 64.7179L147.809 72.1482C147.616 72.2593 147.393 72.2969 147.177 72.2549C146.961 72.2129 146.765 72.0936 146.621 71.9169L143.118 67.7073C143.046 67.6357 142.99 67.5475 142.955 67.4494C142.919 67.3514 142.905 67.246 142.914 67.1413C142.922 67.0367 142.952 66.9354 143.003 66.8451C143.053 66.7548 143.122 66.678 143.205 66.6203L154.247 59.1958C154.44 59.0847 154.663 59.047 154.879 59.0891C155.095 59.1311 155.291 59.2503 155.434 59.4271L158.938 63.6308C159.009 63.7042 159.063 63.7937 159.097 63.8928C159.131 63.9919 159.143 64.0978 159.132 64.2026C159.122 64.3073 159.089 64.4082 159.037 64.4975C158.984 64.5868 158.913 64.6621 158.829 64.7179Z" fill="#68E1FD"/>
</svg>
