<svg width="290" height="229" viewBox="0 0 290 229" fill="none" xmlns="http://www.w3.org/2000/svg">
<defs>
<linearGradient id="paint0_linear_67_235" x1="50.1014" y1="72.3908" x2="97.3375" y2="72.3908" gradientUnits="userSpaceOnUse">
<stop stop-color="#010101" stop-opacity="0"/>
<stop offset="0.95" stop-color="#010101"/>
</linearGradient>
<linearGradient id="paint1_linear_67_235" x1="34405.8" y1="23833.1" x2="32830.8" y2="92408.8" gradientUnits="userSpaceOnUse">
<stop stop-color="#010101" stop-opacity="0"/>
<stop offset="0.95" stop-color="#010101"/>
</linearGradient>
<linearGradient id="paint2_linear_67_235" x1="20237.3" y1="22802.6" x2="30523.7" y2="24113.1" gradientUnits="userSpaceOnUse">
<stop stop-color="#010101" stop-opacity="0"/>
<stop offset="0.95" stop-color="#010101"/>
</linearGradient>
<linearGradient id="paint3_linear_67_235" x1="9038.83" y1="1520.63" x2="8544.45" y2="2209.61" gradientUnits="userSpaceOnUse">
<stop stop-color="#010101" stop-opacity="0"/>
<stop offset="0.95" stop-color="#010101"/>
</linearGradient>
<linearGradient id="paint4_linear_67_235" x1="139.961" y1="236.411" x2="176.3" y2="63.6507" gradientUnits="userSpaceOnUse">
<stop stop-color="white" stop-opacity="0"/>
<stop offset="0.95" stop-color="white"/>
</linearGradient>
<linearGradient id="paint5_linear_67_235" x1="4217.73" y1="15603.5" x2="4520.36" y2="15603.5" gradientUnits="userSpaceOnUse">
<stop stop-color="#010101" stop-opacity="0"/>
<stop offset="0.95" stop-color="#010101"/>
</linearGradient>
<linearGradient id="paint6_linear_67_235" x1="179.19" y1="151.989" x2="207.506" y2="151.989" gradientUnits="userSpaceOnUse">
<stop stop-color="#E5C6D6"/>
<stop offset="0.42" stop-color="#EAD4D0"/>
<stop offset="1" stop-color="#F0E9CB"/>
</linearGradient>
<linearGradient id="paint7_linear_67_235" x1="4835.15" y1="2649.26" x2="5634.61" y2="5184.56" gradientUnits="userSpaceOnUse">
<stop stop-color="#010101" stop-opacity="0"/>
<stop offset="0.95" stop-color="#010101"/>
</linearGradient>
<linearGradient id="paint8_linear_67_235" x1="7199.61" y1="19095.2" x2="11300.9" y2="19095.2" gradientUnits="userSpaceOnUse">
<stop stop-color="#E5C6D6"/>
<stop offset="0.42" stop-color="#EAD4D0"/>
<stop offset="1" stop-color="#F0E9CB"/>
</linearGradient>
<linearGradient id="paint9_linear_67_235" x1="6056.58" y1="8968.49" x2="6743.61" y2="8806.81" gradientUnits="userSpaceOnUse">
<stop stop-color="#010101" stop-opacity="0"/>
<stop offset="0.95" stop-color="#010101"/>
</linearGradient>
<linearGradient id="paint10_linear_67_235" x1="4710.07" y1="5462.49" x2="3418.88" y2="5761.04" gradientUnits="userSpaceOnUse">
<stop stop-color="#010101" stop-opacity="0"/>
<stop offset="0.95" stop-color="#010101"/>
</linearGradient>
<linearGradient id="paint11_linear_67_235" x1="2209.66" y1="589.798" x2="2238.82" y2="468.735" gradientUnits="userSpaceOnUse">
<stop stop-color="#010101" stop-opacity="0"/>
<stop offset="0.95" stop-color="#010101"/>
</linearGradient>
<linearGradient id="paint12_linear_67_235" x1="3728.82" y1="2897.67" x2="3962.87" y2="2930.23" gradientUnits="userSpaceOnUse">
<stop stop-color="#E5C6D6"/>
<stop offset="0.42" stop-color="#EAD4D0"/>
<stop offset="1" stop-color="#F0E9CB"/>
</linearGradient>
<linearGradient id="paint13_linear_67_235" x1="1534.54" y1="1821.6" x2="1469.93" y2="1727.68" gradientUnits="userSpaceOnUse">
<stop stop-color="#010101" stop-opacity="0"/>
<stop offset="0.95" stop-color="#010101"/>
</linearGradient>
<linearGradient id="paint14_linear_67_235" x1="2526.03" y1="4352.57" x2="2514.02" y2="3383.03" gradientUnits="userSpaceOnUse">
<stop stop-color="#010101" stop-opacity="0"/>
<stop offset="0.95" stop-color="#010101"/>
</linearGradient>
<linearGradient id="paint15_linear_67_235" x1="1119.19" y1="608.631" x2="1145.4" y2="656.538" gradientUnits="userSpaceOnUse">
<stop stop-color="#010101" stop-opacity="0"/>
<stop offset="0.95" stop-color="#010101"/>
</linearGradient>
<linearGradient id="paint16_linear_67_235" x1="1304.76" y1="2552.77" x2="1479.9" y2="2552.77" gradientUnits="userSpaceOnUse">
<stop stop-color="#010101" stop-opacity="0"/>
<stop offset="0.95" stop-color="#010101"/>
</linearGradient>
<linearGradient id="paint17_linear_67_235" x1="7346.54" y1="6334.17" x2="10419" y2="8195.37" gradientUnits="userSpaceOnUse">
<stop stop-color="#010101" stop-opacity="0"/>
<stop offset="0.95" stop-color="#010101"/>
</linearGradient>
<linearGradient id="paint18_linear_67_235" x1="8039.01" y1="5332.43" x2="7429.2" y2="7170.53" gradientUnits="userSpaceOnUse">
<stop stop-color="#010101" stop-opacity="0"/>
<stop offset="0.95" stop-color="#010101"/>
</linearGradient>
<linearGradient id="paint19_linear_67_235" x1="1753.11" y1="1224.2" x2="1745.4" y2="1263.98" gradientUnits="userSpaceOnUse">
<stop stop-color="#010101" stop-opacity="0"/>
<stop offset="0.95" stop-color="#010101"/>
</linearGradient>
<linearGradient id="paint20_linear_67_235" x1="291.329" y1="1381.57" x2="340.334" y2="1411.25" gradientUnits="userSpaceOnUse">
<stop stop-color="#010101" stop-opacity="0"/>
<stop offset="0.95" stop-color="#010101"/>
</linearGradient>
<linearGradient id="paint21_linear_67_235" x1="8605.26" y1="-6262.1" x2="9333.63" y2="-7812.53" gradientUnits="userSpaceOnUse">
<stop stop-color="#010101" stop-opacity="0"/>
<stop offset="0.95" stop-color="#010101"/>
</linearGradient>
<linearGradient id="paint22_linear_67_235" x1="5773.17" y1="-5810" x2="8212.64" y2="-6892.44" gradientUnits="userSpaceOnUse">
<stop stop-color="#010101" stop-opacity="0"/>
<stop offset="0.95" stop-color="#010101"/>
</linearGradient>
<linearGradient id="paint23_linear_67_235" x1="1422.85" y1="-515.813" x2="1444.12" y2="-540.053" gradientUnits="userSpaceOnUse">
<stop stop-color="#010101" stop-opacity="0"/>
<stop offset="0.95" stop-color="#010101"/>
</linearGradient>
<linearGradient id="paint24_linear_67_235" x1="4942.59" y1="-9604.93" x2="5108.63" y2="-9958.36" gradientUnits="userSpaceOnUse">
<stop stop-color="#010101" stop-opacity="0"/>
<stop offset="0.95" stop-color="#010101"/>
</linearGradient>
</defs>
<path opacity="0.24" d="M289.239 144.191C288.272 159.067 284.49 174.881 273.361 184.751C263.886 193.162 250.778 195.782 239.518 201.55C229.281 206.813 220.068 214.846 210.258 220.86C209.217 221.512 208.154 222.13 207.091 222.731C201.21 226.009 195.051 228.389 188.255 228.893C185.355 229.089 182.442 228.995 179.56 228.613C179.099 228.555 178.65 228.498 178.184 228.407C174.669 227.92 171.189 227.171 167.702 226.461C151.604 223.14 135.335 220.714 118.971 219.195C117.225 219.006 115.456 218.857 113.705 218.703C112.96 218.628 112.232 218.577 111.492 218.52C103.093 217.862 94.1584 218.142 85.446 217.467C84.373 217.394 83.2944 217.301 82.2101 217.187C78.1264 216.81 74.0876 216.043 70.148 214.898C47.4001 208.061 27.4956 179.951 15.2914 161.115C4.29274 144.071 -4.19793 123.021 2.2113 103.751C7.09073 89.1436 19.4884 78.656 29.6339 67.1327C45.5575 49.0411 57.2727 26.5096 77.4501 13.4187C103.093 -3.25399 136.191 -0.856654 166.588 2.15861C178.781 3.36014 191.4 4.70471 201.915 10.9984C214.074 18.2648 221.689 31.0239 230.754 41.975C249.015 64.0145 275.164 80.7558 284.996 107.687C289.239 119.279 290.018 131.884 289.239 144.191Z" fill="#004777"/>
<path opacity="0.24" d="M264.825 156.349C264.046 168.364 260.997 181.118 252.018 189.076C244.369 195.862 233.819 197.979 224.72 202.631C216.446 206.882 209.024 213.365 201.108 218.211C200.272 218.743 199.402 219.241 198.56 219.721C193.811 222.37 188.841 224.298 183.359 224.693C181.018 224.854 178.667 224.779 176.341 224.47C175.966 224.424 175.607 224.379 175.232 224.304C172.389 223.909 169.585 223.303 166.775 222.731C153.785 220.054 140.659 218.096 127.456 216.866C126.045 216.717 124.612 216.597 123.202 216.477C122.605 216.414 122.019 216.368 121.416 216.323C114.643 215.796 107.432 216.019 100.403 215.476C99.5307 215.419 98.6606 215.344 97.7924 215.253C94.4962 214.942 91.2364 214.319 88.0563 213.393C69.7101 207.878 53.6159 185.197 43.7831 170.012C34.9114 156.28 28.0586 139.276 33.2395 123.725C37.1748 111.927 47.1783 103.476 55.3675 94.19C68.2087 79.5943 77.6718 61.4283 93.948 50.8549C114.649 37.4035 141.338 39.3373 165.866 41.769C175.698 42.7417 185.884 43.8288 194.369 48.9038C204.179 54.7684 210.321 65.073 217.634 73.8956C232.369 91.684 253.462 105.193 261.424 126.923C264.825 136.249 265.456 146.422 264.825 156.349Z" fill="#3498DB"/>
<path d="M50.1014 64.6152C50.1014 64.6152 50.6701 68.4372 51.2786 69.6216C51.8871 70.806 59.0754 82.4093 60.1218 82.5409C61.1682 82.6725 96.6152 64.8784 96.6152 64.8784L97.3375 62.2408L50.1014 64.6152Z" fill="#3498DB"/>
<path opacity="0.26" d="M50.1014 64.6152C50.1014 64.6152 50.6701 68.4372 51.2786 69.6216C51.8871 70.806 59.0754 82.4093 60.1218 82.5409C61.1682 82.6725 96.6152 64.8784 96.6152 64.8784L97.3375 62.2408L50.1014 64.6152Z" fill="url(#paint0_linear_67_235)"/>
<path d="M34.8489 116.418C34.8489 116.418 37.6014 111.412 38.6478 109.959C39.6942 108.505 56.7267 101.13 56.7267 101.13C56.7267 101.13 50.3061 108.643 49.1289 109.169C47.9517 109.695 34.8489 116.418 34.8489 116.418Z" fill="#3498DB"/>
<path opacity="0.26" d="M210.275 165.332C209.235 169.543 209.752 175.35 209.752 175.35L210.258 220.86C209.217 221.512 208.154 222.13 207.091 222.731C201.21 226.009 195.051 228.389 188.255 228.893C184.899 229.111 181.529 228.955 178.206 228.429V228.429V190.095C178.208 188.191 177.566 186.342 176.386 184.853C175.206 183.364 173.558 182.324 171.712 181.902C159.263 179.041 133.086 173.171 130.908 173.371C128.024 173.634 123.293 180.237 120.41 183.916C117.526 187.595 118.448 190.633 118.448 190.633L118.988 219.195C117.242 219.006 115.473 218.857 113.722 218.703C112.977 218.628 112.249 218.577 111.509 218.52C103.11 217.862 94.1755 218.142 85.463 217.467L83.4555 195.387L84.5929 187.263C84.5929 187.263 84.5361 176.924 83.2167 172.713C81.8973 168.502 82.6935 166.642 82.6935 163.741C82.6935 160.841 107.602 151.623 107.602 151.623L105.72 143.968C105.72 143.968 86.0602 149.249 82.9153 148.728C79.7704 148.207 81.6129 143.184 81.6129 143.184L111.492 114.719L117.782 137.376C117.782 137.376 115.416 147.675 118.561 152.676C121.706 157.677 125.897 153.986 127.2 152.418C128.502 150.851 132.932 148.259 132.932 148.259L147.917 94.6764C147.917 94.6764 189.319 92.8226 196.871 92.5422C204.423 92.2618 206.09 98.1036 206.346 99.1563C206.601 100.209 201.898 114.982 200.841 123.404C199.783 131.826 204.253 133.703 204.253 133.703C215.263 144.225 211.339 161.098 210.275 165.332Z" fill="url(#paint1_linear_67_235)"/>
<path d="M199.392 87.8387L146.411 76.9941C143.361 76.3698 140.385 78.3513 139.765 81.4199L123.462 162.039C122.841 165.107 124.811 168.101 127.861 168.725L180.841 179.57C183.892 180.194 186.867 178.213 187.488 175.144L203.791 94.5254C204.411 91.4567 202.442 88.463 199.392 87.8387Z" fill="#3498DB"/>
<path d="M199.392 87.8387L146.411 76.9941C143.361 76.3698 140.385 78.3513 139.765 81.4199L123.462 162.039C122.841 165.107 124.811 168.101 127.861 168.725L180.841 179.57C183.892 180.194 186.867 178.213 187.488 175.144L203.791 94.5254C204.411 91.4567 202.442 88.463 199.392 87.8387Z" fill="url(#paint2_linear_67_235)"/>
<path d="M198.084 87.0486L145.104 76.204C142.054 75.5797 139.078 77.5612 138.457 80.6298L122.154 161.249C121.534 164.317 123.503 167.311 126.553 167.935L179.534 178.78C182.584 179.404 185.56 177.423 186.18 174.354L202.483 93.7353C203.104 90.6667 201.134 87.6729 198.084 87.0486Z" fill="#3498DB"/>
<path d="M166.726 76.5332L179.059 79.0575C180.912 79.4369 182.54 80.5415 183.584 82.1283C184.628 83.7151 185.002 85.6541 184.625 87.5188L184.137 89.9352L157.811 84.5466L158.298 82.1357C158.485 81.2104 158.851 80.3311 159.375 79.5484C159.9 78.7657 160.573 78.0948 161.356 77.5744C162.139 77.0539 163.017 76.694 163.938 76.5153C164.86 76.3367 165.807 76.3427 166.726 76.5332V76.5332Z" fill="#3498DB"/>
<path d="M166.726 76.5332L179.059 79.0575C180.912 79.4369 182.54 80.5415 183.584 82.1283C184.628 83.7151 185.002 85.6541 184.625 87.5188L184.137 89.9352L157.811 84.5466L158.298 82.1357C158.485 81.2104 158.851 80.3311 159.375 79.5484C159.9 78.7657 160.573 78.0948 161.356 77.5744C162.139 77.0539 163.017 76.694 163.938 76.5153C164.86 76.3367 165.807 76.3427 166.726 76.5332V76.5332Z" fill="url(#paint3_linear_67_235)"/>
<path d="M180.055 173.68L128.195 163.072L145.011 81.9173L196.871 92.5308L180.055 173.68Z" fill="url(#paint4_linear_67_235)"/>
<path d="M165.721 76.3363L178.054 78.8606C179.907 79.24 181.535 80.3446 182.579 81.9314C183.623 83.5182 183.998 85.4572 183.621 87.3219L183.127 89.7608L156.818 84.3756L157.311 81.9367C157.688 80.072 158.786 78.4344 160.363 77.3841C161.941 76.3338 163.868 75.9569 165.721 76.3363V76.3363Z" fill="white"/>
<path d="M193.84 99.3394L146.456 89.6414L147.184 86.0368L194.568 95.7291L193.84 99.3394ZM147.536 88.9262L193.123 98.2523L193.516 96.4786L147.929 87.1525L147.536 88.9262Z" fill="#3498DB"/>
<path d="M188.653 124.983L141.269 115.291L145.603 93.8639L192.987 103.556L188.653 124.983ZM142.333 114.57L187.92 123.896L191.901 104.277L146.314 94.9453L142.333 114.57Z" fill="#3498DB"/>
<path d="M191.673 110.062L144.289 100.369L145.603 93.8639L192.987 103.556L191.673 110.062ZM145.37 99.6484L190.957 108.975L191.906 104.277L146.314 94.9453L145.37 99.6484Z" fill="#3498DB"/>
<path d="M162.038 119.096L150.96 116.807L155.208 95.8035L166.286 98.0921L162.038 119.096ZM152.04 116.727L161.322 118.627L165.206 98.813L155.925 96.9135L152.04 116.727Z" fill="#3498DB"/>
<path d="M180.674 122.907L169.591 120.618L173.839 99.6141L184.917 101.903L180.674 122.907ZM170.677 119.937L179.958 121.837L183.848 102.624L174.567 100.724L170.677 119.937Z" fill="#3498DB"/>
<path d="M185.218 137.022L138.414 127.444L139.415 122.483L186.225 132.055L185.218 137.022ZM139.495 126.723L184.507 135.957L185.144 132.799L140.132 123.593L139.495 126.723Z" fill="#3498DB"/>
<path d="M185.662 143.75L135.588 133.503L136.396 129.498L186.469 139.745L185.662 143.75ZM136.646 132.788L184.923 142.663L185.366 140.477L137.089 130.596L136.646 132.788Z" fill="#3498DB"/>
<path d="M144.909 140.535L134.94 138.469L135.582 135.311L145.569 137.354L144.909 140.535ZM135.998 137.771L144.192 139.448L144.465 138.097L136.276 136.421L135.998 137.771Z" fill="#3498DB"/>
<path d="M180.616 146.555L146.555 139.583L146.45 140.098L180.511 147.07L180.616 146.555Z" fill="#3498DB"/>
<path d="M143.92 145.404L133.927 143.361L134.57 140.203L144.556 142.251L143.92 145.404ZM135.008 142.64L143.203 144.322L143.476 142.966L135.287 141.29L135.008 142.64Z" fill="#3498DB"/>
<path d="M179.625 151.453L145.564 144.481L145.46 144.997L179.521 151.969L179.625 151.453Z" fill="#3498DB"/>
<path d="M142.93 150.301L132.938 148.259L133.581 145.101L143.567 147.143L142.93 150.301ZM134.019 147.538L142.213 149.214L142.486 147.864L134.297 146.188L134.019 147.538Z" fill="#3498DB"/>
<path d="M178.635 156.351L144.574 149.379L144.469 149.895L178.53 156.867L178.635 156.351Z" fill="#3498DB"/>
<path opacity="0.26" d="M178.957 130.425C178.542 132.439 176.443 133.635 175.573 135.494C175.145 136.604 174.939 137.788 174.965 138.978L173.856 165.137C173.725 168.13 173.611 171.208 174.601 174.034C175.59 176.861 177.95 179.407 180.913 179.682C181.837 179.781 182.767 179.581 183.569 179.11C185.315 178.028 185.707 175.677 185.901 173.645C187.146 160.423 187.01 147.109 186.595 133.835C186.613 132.618 186.454 131.406 186.123 130.236C185.474 128.359 183.211 125.498 181.249 124.863C177.808 123.725 179.298 128.64 178.957 130.425Z" fill="url(#paint5_linear_67_235)"/>
<path d="M105.645 87.1873L73.59 93.456C71.3363 93.8968 69.8644 96.0922 70.3024 98.3597L78.7024 141.837C79.1405 144.104 81.3227 145.585 83.5764 145.144L115.631 138.875C117.885 138.435 119.357 136.239 118.919 133.972L110.519 90.4949C110.081 88.2274 107.898 86.7466 105.645 87.1873Z" fill="#3498DB"/>
<path d="M106.619 83.7813L70.7125 90.8033C68.9027 91.1572 67.7207 92.9202 68.0725 94.741L70.7137 108.411C71.0655 110.232 72.8178 111.421 74.6276 111.067L110.534 104.045C112.344 103.692 113.526 101.929 113.174 100.108L110.533 86.4373C110.181 84.6165 108.429 83.4274 106.619 83.7813Z" fill="#3498DB"/>
<path d="M106.081 87.5041L72.7196 94.0283C71.5172 94.2634 70.7319 95.4347 70.9656 96.6444L72.2884 103.491C72.5221 104.701 73.6863 105.491 74.8888 105.256L108.25 98.7314C109.452 98.4962 110.237 97.3249 110.004 96.1152L108.681 89.2687C108.447 88.059 107.283 87.2689 106.081 87.5041Z" fill="white"/>
<path d="M83.1917 112.068L77.4361 113.194C76.8133 113.315 76.4066 113.922 76.5277 114.549L77.2482 118.278C77.3692 118.904 77.9723 119.314 78.5951 119.192L84.3506 118.066C84.9734 117.945 85.3801 117.338 85.2591 116.711L84.5385 112.982C84.4175 112.355 83.8145 111.946 83.1917 112.068Z" fill="white"/>
<path d="M92.1256 110.322L86.37 111.448C85.7472 111.569 85.3405 112.176 85.4616 112.803L86.1821 116.532C86.3031 117.159 86.9062 117.568 87.529 117.446L93.2845 116.32C93.9073 116.199 94.314 115.592 94.193 114.965L93.4724 111.236C93.3514 110.609 92.7484 110.2 92.1256 110.322Z" fill="white"/>
<path d="M101.058 108.57L95.3028 109.696C94.68 109.818 94.2733 110.424 94.3944 111.051L95.1149 114.78C95.236 115.407 95.839 115.816 96.4618 115.694L102.217 114.569C102.84 114.447 103.247 113.84 103.126 113.214L102.405 109.484C102.284 108.858 101.681 108.449 101.058 108.57Z" fill="white"/>
<path d="M84.558 119.131L78.8024 120.257C78.1796 120.379 77.7729 120.985 77.8939 121.612L78.6145 125.341C78.7355 125.968 79.3385 126.377 79.9613 126.255L85.7169 125.13C86.3397 125.008 86.7464 124.401 86.6253 123.775L85.9048 120.045C85.7838 119.419 85.1808 119.01 84.558 119.131Z" fill="white"/>
<path d="M93.4919 117.385L87.7363 118.511C87.1135 118.633 86.7068 119.239 86.8278 119.866L87.5484 123.595C87.6694 124.222 88.2724 124.631 88.8952 124.509L94.6508 123.384C95.2736 123.262 95.6803 122.655 95.5592 122.029L94.8387 118.299C94.7177 117.673 94.1147 117.264 93.4919 117.385Z" fill="white"/>
<path d="M102.425 115.64L96.6691 116.765C96.0463 116.887 95.6395 117.494 95.7606 118.12L96.4811 121.849C96.6022 122.476 97.2052 122.885 97.828 122.763L103.584 121.638C104.206 121.516 104.613 120.909 104.492 120.283L103.771 116.553C103.65 115.927 103.047 115.518 102.425 115.64Z" fill="white"/>
<path d="M85.9185 126.2L80.1629 127.326C79.5401 127.448 79.1334 128.054 79.2545 128.681L79.975 132.41C80.0961 133.037 80.6991 133.446 81.3219 133.324L87.0774 132.199C87.7002 132.077 88.1069 131.47 87.9859 130.844L87.2654 127.114C87.1443 126.488 86.5413 126.079 85.9185 126.2Z" fill="white"/>
<path d="M94.8581 124.454L89.1025 125.58C88.4797 125.702 88.073 126.308 88.194 126.935L88.9146 130.664C89.0356 131.291 89.6386 131.7 90.2614 131.578L96.017 130.453C96.6398 130.331 97.0465 129.724 96.9255 129.098L96.2049 125.368C96.0839 124.742 95.4809 124.333 94.8581 124.454Z" fill="white"/>
<path d="M103.791 122.703L98.0354 123.828C97.4126 123.95 97.0059 124.557 97.1269 125.183L97.8474 128.913C97.9685 129.539 98.5715 129.949 99.1943 129.827L104.95 128.701C105.573 128.579 105.979 127.973 105.858 127.346L105.138 123.617C105.017 122.99 104.414 122.581 103.791 122.703Z" fill="white"/>
<path d="M87.2847 133.264L81.5292 134.389C80.9064 134.511 80.4996 135.118 80.6207 135.744L81.3412 139.474C81.4623 140.1 82.0653 140.51 82.6881 140.388L88.4436 139.262C89.0664 139.14 89.4731 138.534 89.3521 137.907L88.6316 134.178C88.5105 133.551 87.9075 133.142 87.2847 133.264Z" fill="white"/>
<path d="M96.2187 131.518L90.4631 132.643C89.8403 132.765 89.4336 133.372 89.5546 133.998L90.2752 137.728C90.3962 138.354 90.9992 138.764 91.622 138.642L97.3776 137.516C98.0004 137.394 98.4071 136.788 98.286 136.161L97.5655 132.432C97.4445 131.805 96.8414 131.396 96.2187 131.518Z" fill="white"/>
<path d="M105.157 129.772L99.4016 130.898C98.7788 131.019 98.3721 131.626 98.4931 132.253L99.2136 135.982C99.3347 136.608 99.9377 137.018 100.561 136.896L106.316 135.77C106.939 135.649 107.346 135.042 107.225 134.415L106.504 130.686C106.383 130.059 105.78 129.65 105.157 129.772Z" fill="white"/>
<path d="M110.233 106.777L104.533 107.892C103.911 108.013 103.504 108.62 103.625 109.247L104.078 111.594C104.2 112.221 104.803 112.63 105.425 112.508L111.125 111.394C111.748 111.272 112.155 110.665 112.034 110.039L111.58 107.691C111.459 107.064 110.856 106.655 110.233 106.777Z" fill="white"/>
<path d="M111.193 111.753L105.493 112.868C104.87 112.99 104.463 113.597 104.584 114.223L105.042 116.593C105.163 117.22 105.766 117.629 106.389 117.507L112.089 116.393C112.712 116.271 113.118 115.664 112.997 115.038L112.539 112.667C112.418 112.041 111.815 111.632 111.193 111.753Z" fill="white"/>
<path d="M112.186 116.875L106.487 117.99C105.864 118.112 105.457 118.718 105.578 119.345L106.036 121.715C106.157 122.341 106.76 122.751 107.383 122.629L113.083 121.514C113.705 121.392 114.112 120.786 113.991 120.159L113.533 117.789C113.412 117.162 112.809 116.753 112.186 116.875Z" fill="white"/>
<path d="M113.176 122.009L107.476 123.124C106.853 123.246 106.446 123.852 106.567 124.479L107.025 126.849C107.146 127.476 107.749 127.885 108.372 127.763L114.072 126.648C114.695 126.527 115.101 125.92 114.98 125.293L114.522 122.923C114.401 122.297 113.798 121.887 113.176 122.009Z" fill="white"/>
<path d="M114.214 127.385L108.515 128.5C107.892 128.622 107.485 129.228 107.606 129.855L108.447 134.208C108.568 134.834 109.171 135.243 109.794 135.122L115.494 134.007C116.116 133.885 116.523 133.278 116.402 132.652L115.561 128.299C115.44 127.673 114.837 127.263 114.214 127.385Z" fill="white"/>
<path d="M181.977 128.989C182.227 130.448 183.507 131.443 184.735 132.124C187.868 133.84 191.514 134.813 193.908 137.634C195.068 139.06 195.806 140.786 196.038 142.614C196.27 144.442 195.988 146.299 195.222 147.973C194.954 148.516 194.562 149.077 193.988 149.117C193.494 149.097 193.026 148.893 192.674 148.545C189.198 145.712 186.767 141.787 185.77 137.399C185.486 136.146 185.287 134.802 184.507 133.818C183.251 132.227 180.817 132.256 179.389 133.537C177.962 134.819 184.178 163.976 183.438 173.554C183.364 174.492 183.279 175.511 183.74 176.335C183.958 176.7 184.244 177.021 184.581 177.279C187.129 179.361 190.706 179.293 193.533 177.959C196.359 176.626 198.594 174.223 200.71 171.815C202.192 170.215 203.512 168.471 204.651 166.608C207.887 160.984 208.063 153.7 206.613 147.074C205.447 141.816 203.275 136.707 199.914 132.628C197.314 129.375 193.866 126.914 189.956 125.521C187.487 124.715 181.215 124.457 181.977 128.989Z" fill="url(#paint6_linear_67_235)"/>
<path d="M204.912 174.137H182.665V178.554H204.912V174.137Z" fill="white"/>
<path d="M207.09 178.48L210.258 220.86C204.378 224.138 195.051 228.389 188.255 228.87C185.355 229.066 182.442 228.972 179.56 228.59V178.48H207.09Z" fill="#3498DB"/>
<path d="M218.698 113.712C223.136 113.712 226.733 110.092 226.733 105.627C226.733 101.162 223.136 97.5428 218.698 97.5428C214.26 97.5428 210.662 101.162 210.662 105.627C210.662 110.092 214.26 113.712 218.698 113.712Z" fill="#3498DB"/>
<path d="M216.15 95.5689C220.588 95.5689 224.186 91.9493 224.186 87.4844C224.186 83.0194 220.588 79.3998 216.15 79.3998C211.712 79.3998 208.114 83.0194 208.114 87.4844C208.114 91.9493 211.712 95.5689 216.15 95.5689Z" fill="#3498DB"/>
<path d="M88.6989 46.0659C92.3259 51.0183 95.2346 56.4645 97.3374 62.2408C88.1075 66.984 71.6038 74.9198 62.2544 79.4055C61.6957 79.755 61.0382 79.9098 60.3834 79.8461C59.6441 79.6916 59.138 79.0279 58.6773 78.4042C56.1826 74.8149 53.7941 71.134 51.5117 67.3616C50.1014 65.0444 49.1573 64.455 51.5515 62.8931C53.3714 61.703 55.3334 60.6902 57.2385 59.6661C64.9899 55.5008 80.3447 48.7436 88.6989 46.0659Z" fill="#3498DB"/>
<path opacity="0.26" d="M53.7695 65.9255C53.7695 65.9255 55.5381 64.209 55.7429 62.5612L84.2858 49.3215C84.2858 49.3215 87.8174 50.9693 89.2449 50.42L93.7944 59.0024C93.7944 59.0024 92.8561 61.0049 92.8561 62.2236L64.5861 76.1499C64.5861 76.1499 61.39 75.8066 59.7635 76.0813L53.7695 65.9255Z" fill="url(#paint7_linear_67_235)"/>
<path d="M85.0592 70.1938C84.9556 70.4383 84.762 70.6331 84.519 70.7373C83.1775 71.4906 81.7613 72.1004 80.2935 72.5568C79.8921 72.6973 79.4663 72.7538 79.0424 72.7227C78.9793 72.7159 78.9178 72.6985 78.8604 72.6712C78.0187 72.4423 77.5183 71.5269 77.1543 70.703C75.1582 66.4862 73.1734 62.2751 71.1944 58.0583C71.0294 57.7036 70.711 57.1429 70.3754 56.5249L70.2844 56.3762C69.8202 55.5947 69.4389 54.7662 69.1471 53.9045C69.1132 53.8534 69.0935 53.7941 69.0902 53.7328C69.0621 53.6878 69.0446 53.6369 69.039 53.5841C68.9313 53.2826 68.9313 52.9529 69.039 52.6515C69.4655 51.7303 73.6341 50.7576 74.5838 50.42C74.8648 50.2975 75.1714 50.2464 75.4767 50.2713C75.8411 50.3606 76.1641 50.5726 76.3923 50.872C78.0074 52.5885 78.94 54.8199 79.8329 57.0113C81.5276 61.2071 83.2337 65.4029 84.9512 69.5987C85.0449 69.782 85.0825 69.989 85.0592 70.1938Z" fill="white"/>
<path d="M38.7388 113.786C36.4128 114.879 33.8025 116.321 33.3134 118.861C35.9067 118.009 38.4317 120.24 40.2288 122.294L45.6542 128.285C45.8697 128.575 46.1611 128.799 46.4958 128.931C46.9284 129.003 47.3723 128.929 47.7583 128.72C53.4453 126.374 59.0925 123.914 64.6999 121.339C65.4278 121.007 66.241 120.578 66.4515 119.794C66.5454 119.207 66.4477 118.604 66.1728 118.078C64.5293 113.844 61.8393 99.122 55.777 101.434C53.3202 102.378 51.2274 105.971 49.2711 107.647C46.1091 110.308 42.424 112.058 38.7388 113.786Z" fill="#3498DB"/>
<path d="M249.618 165.967C242.21 161.015 234.053 157.303 225.465 154.976C224.896 154.816 224.174 154.684 223.702 155.079C223.382 155.432 223.198 155.889 223.185 156.366C222.404 161.893 221.626 167.424 220.853 172.959C220.733 173.444 220.761 173.954 220.933 174.424C221.285 175.145 222.189 175.35 222.969 175.505C229.381 176.768 235.28 179.907 239.927 184.528C241.633 186.244 243.908 188.304 246.086 187.297C247.826 186.496 248.23 184.242 248.412 182.325L249.845 166.934" fill="#3498DB"/>
<path d="M121.57 152.19C123.355 149.621 126.119 147.04 129.15 147.698C129.395 147.73 129.631 147.811 129.844 147.937C130.057 148.063 130.243 148.231 130.39 148.43C130.794 149.083 130.464 149.924 130.134 150.616L124.055 163.318C123.423 164.718 122.698 166.074 121.882 167.375C118.419 172.616 112.158 175.757 109.576 181.484C107.955 185.089 107.767 189.689 104.594 192.023C102.888 193.293 100.613 193.556 98.4578 193.597C96.6749 193.623 94.8924 193.524 93.1234 193.299C92.1104 193.223 91.1244 192.934 90.2287 192.452C89.6165 192.017 89.0959 191.465 88.6967 190.826C88.2975 190.188 88.0277 189.477 87.9027 188.733C87.6643 187.246 87.537 185.743 87.5217 184.236C87.0042 176.323 82.7958 169.005 82.3067 161.087C82.1247 158.146 82.8754 154.627 85.5426 153.465C86.481 153.065 87.5501 153.013 88.443 152.527C89.5406 151.955 90.2969 150.742 91.4969 150.41C92.6968 150.078 94.1129 150.713 95.2332 150.13C96.2285 149.615 96.6152 148.322 97.5877 147.761C98.6511 147.143 99.9819 147.607 101.205 147.618C104.202 147.652 106.55 144.9 107.511 142.051C108.473 139.202 108.495 136.106 109.354 133.223C109.826 131.655 110.907 129.921 112.527 129.996C113.705 130.047 114.637 131.106 114.944 132.25C115.171 133.413 115.161 134.61 114.916 135.769C114.101 141.699 113.643 147.674 113.545 153.66C113.511 155.857 113.614 159.713 116.639 157.94C118.806 156.652 120.154 154.221 121.57 152.19Z" fill="url(#paint8_linear_67_235)"/>
<path d="M111.282 187.274H84.5588V192.269H111.282V187.274Z" fill="white"/>
<path d="M113.705 191.68V218.703C112.96 218.628 112.232 218.577 111.492 218.52C102.052 217.787 91.9234 218.216 82.2101 217.187V191.68H113.705Z" fill="#3498DB"/>
<path d="M182.403 123.456C182.22 123.319 182 123.242 181.772 123.233C181.6 123.264 181.439 123.34 181.305 123.452C181.17 123.564 181.067 123.709 181.004 123.873C180.174 125.487 180.874 127.438 181.573 129.114L187.459 143.024C189.324 147.435 191.212 151.881 193.954 155.794C194.118 156.099 194.341 156.367 194.609 156.584C194.878 156.801 195.187 156.963 195.518 157.059C195.967 157.105 196.417 156.98 196.78 156.71C197.917 155.949 198.384 154.45 198.293 153.076C198.123 151.71 197.739 150.38 197.155 149.134C195.324 144.557 193.555 140.552 191.326 136.238C188.966 131.643 187.027 126.288 182.403 123.456Z" fill="#3498DB"/>
<path d="M182.403 123.456C182.22 123.319 182 123.242 181.772 123.233C181.6 123.264 181.439 123.34 181.305 123.452C181.17 123.564 181.067 123.709 181.004 123.873C180.174 125.487 180.874 127.438 181.573 129.114L187.459 143.024C189.324 147.435 191.212 151.881 193.954 155.794C194.118 156.099 194.341 156.367 194.609 156.584C194.878 156.801 195.187 156.963 195.518 157.059C195.967 157.105 196.417 156.98 196.78 156.71C197.917 155.949 198.384 154.45 198.293 153.076C198.123 151.71 197.739 150.38 197.155 149.134C195.324 144.557 193.555 140.552 191.326 136.238C188.966 131.643 187.027 126.288 182.403 123.456Z" fill="url(#paint9_linear_67_235)"/>
<path d="M184.183 133.211C185.042 134.293 186.021 135.272 187.101 136.129C189.279 138.017 191.457 140.043 192.788 142.732C193.292 143.814 193.74 144.921 194.13 146.05C194.306 146.514 194.59 147.057 195.04 147.046C195.489 146.474 195.324 145.598 195.125 144.872C194.485 142.469 193.646 140.125 192.617 137.863C191.085 134.784 189.312 131.832 187.317 129.034C186.746 128.124 186.087 127.273 185.349 126.494C185.021 126.103 184.558 125.852 184.053 125.79C182.961 125.79 182.039 127.507 182.142 128.605C182.312 130.167 183.319 132.021 184.183 133.211Z" fill="url(#paint10_linear_67_235)"/>
<path d="M197.108 155.818C198.177 154.902 198.588 153.621 198.026 152.957C197.463 152.293 196.141 152.497 195.073 153.413C194.004 154.329 193.593 155.61 194.155 156.274C194.717 156.938 196.039 156.734 197.108 155.818Z" fill="url(#paint11_linear_67_235)"/>
<path d="M188.358 125.338C188.358 125.338 184.075 124.68 182.898 126.134C181.721 127.587 182.853 131.712 186.606 133.12C188.925 133.996 191.126 135.161 193.157 136.587C193.157 136.587 190.627 126.231 188.358 125.338Z" fill="url(#paint12_linear_67_235)"/>
<path d="M194.949 154.839C194.949 154.839 195.614 153.448 196.848 153.654L198.748 157.373C198.748 157.373 198.901 160.726 196.644 158.518L194.949 154.839Z" fill="#3498DB"/>
<path d="M194.949 154.839C194.949 154.839 195.614 153.448 196.848 153.654L198.748 157.373C198.748 157.373 198.901 160.726 196.644 158.518L194.949 154.839Z" fill="url(#paint13_linear_67_235)"/>
<path opacity="0.26" d="M48.8445 110.571C50.1355 109.884 51.4605 109.169 52.3648 108.019C53.1723 106.978 53.5704 105.673 54.2813 104.586C54.9921 103.499 56.249 102.515 57.5285 102.818C58.3763 103.11 59.0976 103.688 59.5702 104.455C62.0393 107.741 63.6469 111.599 64.2449 115.675C58.4498 115.011 52.8709 117.694 47.5706 120.189C45.6996 121.076 43.5897 121.963 41.622 121.333C40.2344 120.887 39.1198 119.748 38.1132 118.73C36.5208 117.133 37.1634 116.813 38.9833 115.869L48.8445 110.571Z" fill="url(#paint14_linear_67_235)"/>
<path opacity="0.26" d="M78.2064 71.401L84.5417 68.6032C84.7791 69.1629 84.9508 69.7486 85.0536 70.3483C84.9853 70.6286 80.8907 72.6884 79.5486 72.5396C78.2064 72.3909 77.8425 71.6642 77.8425 71.6642L78.2064 71.401Z" fill="url(#paint15_linear_67_235)"/>
<path opacity="0.26" d="M78.8605 72.6712C78.0188 72.4423 77.5183 71.5269 77.1544 70.703C75.1582 66.4862 73.1735 62.2751 71.1944 58.0583C71.0295 57.7036 70.711 57.1429 70.3755 56.5249L70.2845 56.3762C69.6134 54.8943 69.1471 53.9216 69.1471 53.9216C69.1334 53.8628 69.1144 53.8053 69.0902 53.75C69.0621 53.705 69.0446 53.6541 69.039 53.6012C68.8855 53.2636 68.7774 52.7773 69.039 52.6686C69.4826 52.497 70.5063 53.6413 70.5063 53.6413L78.468 71.1893L78.8605 72.6712Z" fill="url(#paint16_linear_67_235)"/>
<path d="M128.94 15.2324C128.94 15.2324 127.467 18.8084 127.359 20.1301C127.251 21.4517 127.399 35.132 128.229 35.79C129.059 36.448 168.527 39.7951 168.527 39.7951L170.506 37.9241L128.94 15.2324Z" fill="#3498DB"/>
<path opacity="0.26" d="M128.94 15.2324C128.94 15.2324 127.467 18.8084 127.359 20.1301C127.251 21.4517 127.399 35.132 128.229 35.79C129.059 36.448 168.527 39.7951 168.527 39.7951L170.506 37.9241L128.94 15.2324Z" fill="url(#paint17_linear_67_235)"/>
<path d="M171.496 19.6037C172.027 25.7231 171.694 31.8873 170.506 37.9127C160.167 37.1288 141.975 35.2636 131.664 34.2109C131.003 34.2241 130.356 34.0191 129.821 33.6273C129.253 33.1123 129.185 32.277 129.139 31.5217C128.855 27.1237 128.713 22.7219 128.713 18.3163C128.713 15.5929 128.206 14.5973 131.061 14.5172C133.228 14.4543 135.429 14.6202 137.59 14.7404C146.371 15.2324 162.965 17.521 171.496 19.6037Z" fill="#3498DB"/>
<path opacity="0.26" d="M131.397 18.2706C131.397 18.2706 133.791 17.7327 134.809 16.4339L166.03 20.0671C166.03 20.0671 168.197 23.3227 169.699 23.6031L169.13 33.3297C169.13 33.3297 167.293 34.5312 166.65 35.584L135.338 32.6546C135.338 32.6546 132.784 30.6921 131.249 30.0741L131.397 18.2706Z" fill="url(#paint18_linear_67_235)"/>
<path d="M155.902 38.296C155.689 38.4533 155.423 38.5191 155.163 38.4791C153.627 38.4202 152.103 38.1997 150.613 37.8212C150.205 37.7265 149.819 37.5536 149.476 37.3119C149.423 37.2711 149.379 37.2207 149.345 37.1632C148.742 36.5338 148.776 35.4868 148.901 34.5885C149.379 29.9483 149.874 25.3138 150.351 20.6736C150.391 20.2846 150.414 19.638 150.448 18.9571C150.448 18.8885 150.448 18.8484 150.448 18.7798C150.457 17.8691 150.561 16.9618 150.761 16.0735C150.754 16.0133 150.768 15.9526 150.801 15.9018C150.797 15.8487 150.807 15.7955 150.829 15.7473C150.902 15.4344 151.078 15.1558 151.33 14.9578C152.171 14.3856 156.232 15.7473 157.216 15.959C157.521 15.9961 157.811 16.1125 158.057 16.2966C158.321 16.5634 158.488 16.9123 158.529 17.2865C159.03 19.5751 158.66 21.9953 158.29 24.3354C157.574 28.7868 156.859 33.2534 156.146 37.7353C156.125 37.9433 156.04 38.1394 155.902 38.296V38.296Z" fill="white"/>
<path opacity="0.26" d="M149.43 35.7385L156.289 36.6654C156.202 37.2691 156.045 37.8605 155.822 38.4276C155.618 38.6279 151.057 38.2445 149.987 37.4149C148.918 36.5853 148.987 35.7785 148.987 35.7785L149.43 35.7385Z" fill="url(#paint19_linear_67_235)"/>
<path opacity="0.26" d="M149.333 37.1632C148.731 36.5338 148.765 35.4867 148.89 34.5885C149.368 29.9483 149.862 25.3138 150.34 20.6736C150.38 20.2845 150.403 19.638 150.437 18.9571C150.437 18.8885 150.437 18.8484 150.437 18.7798C150.63 17.1663 150.755 16.1021 150.755 16.1021C150.755 16.1021 150.755 16.0048 150.795 15.9304C150.791 15.8773 150.801 15.8241 150.823 15.7759C150.869 15.4098 151.028 14.9349 151.324 14.9864C151.79 15.0722 152.075 16.5827 152.075 16.5827L149.8 35.7385L149.333 37.1632Z" fill="url(#paint20_linear_67_235)"/>
<path d="M237.567 119.857C237.567 119.857 241.258 120.933 242.577 120.898C243.897 120.864 257.392 119.182 257.932 118.301C258.472 117.42 257.46 77.5631 257.46 77.5631L255.39 75.7895L237.567 119.857Z" fill="#3498DB"/>
<path opacity="0.26" d="M237.567 119.857C237.567 119.857 241.258 120.933 242.577 120.898C243.897 120.864 257.392 119.182 257.932 118.301C258.472 117.42 257.46 77.5631 257.46 77.5631L255.39 75.7895L237.567 119.857Z" fill="url(#paint21_linear_67_235)"/>
<path d="M237.192 76.8193C243.179 75.6131 249.306 75.2664 255.39 75.7895C255.76 86.2141 255.919 104.609 256.021 115.039C256.096 115.697 255.956 116.362 255.623 116.933C255.174 117.54 254.355 117.723 253.616 117.854C249.305 118.617 244.971 119.243 240.615 119.731C237.931 120.034 236.998 120.647 236.606 117.803C236.305 115.646 236.225 113.426 236.105 111.252C235.656 102.423 236.06 85.6077 237.192 76.8193Z" fill="#3498DB"/>
<path opacity="0.26" d="M240.297 117.076C240.297 117.076 239.501 114.742 238.107 113.861L238.255 82.2377C238.255 82.2377 241.235 79.7087 241.343 78.1753L251.011 77.6547C251.011 77.6547 252.399 79.3712 253.513 79.8861L254.082 111.549C254.082 111.549 252.421 114.318 251.978 115.921L240.297 117.076Z" fill="url(#paint22_linear_67_235)"/>
<path d="M257.38 90.3508C257.557 90.548 257.651 90.8064 257.642 91.0718C257.756 92.6139 257.704 94.1638 257.489 95.6948C257.447 96.1189 257.319 96.5298 257.113 96.902C257.081 96.9571 257.038 97.0056 256.988 97.0451C256.419 97.7145 255.39 97.7832 254.492 97.7774C249.851 97.7774 245.222 97.8232 240.587 97.8575C240.194 97.8575 239.552 97.909 238.881 97.9548H238.704C237.804 98.0468 236.897 98.0468 235.997 97.9548C235.94 97.9728 235.879 97.9728 235.821 97.9548C235.769 97.9686 235.714 97.9686 235.662 97.9548C235.345 97.9149 235.051 97.7699 234.826 97.5429C234.183 96.7647 235.07 92.5536 235.167 91.5409C235.176 91.2333 235.26 90.9326 235.412 90.6655C235.647 90.3745 235.974 90.1727 236.339 90.0934C238.557 89.3381 240.974 89.4411 243.328 89.5498C247.804 89.773 252.296 90.0076 256.8 90.2192C257.002 90.2041 257.204 90.2499 257.38 90.3508V90.3508Z" fill="white"/>
<path opacity="0.26" d="M255.572 97.108L255.726 90.1449C256.331 90.1657 256.933 90.2579 257.517 90.4195C257.739 90.5969 257.864 95.2027 257.164 96.3642C256.465 97.5257 255.657 97.5486 255.657 97.5486L255.572 97.108Z" fill="url(#paint23_linear_67_235)"/>
<path opacity="0.26" d="M256.988 97.0508C256.419 97.7202 255.39 97.7889 254.491 97.7832C249.851 97.7832 245.222 97.8289 240.587 97.8633C240.194 97.8633 239.552 97.9147 238.881 97.9605H238.704H236.02C235.986 97.9605 235.918 97.9605 235.844 97.9605C235.792 97.9743 235.737 97.9743 235.685 97.9605C235.321 97.9605 234.832 97.8518 234.849 97.5486C234.888 97.068 236.35 96.6217 236.35 96.6217L255.526 96.7819L256.988 97.0508Z" fill="url(#paint24_linear_67_235)"/>
<path d="M85.827 101.262L85.7075 100.69L86.3161 99.8086C87.7833 97.7202 88.4202 96.6446 88.2212 95.5689C88.2034 95.3757 88.1426 95.1891 88.0433 95.0227C87.944 94.8564 87.8088 94.7147 87.6476 94.6081C87.4865 94.5015 87.3036 94.4327 87.1125 94.4069C86.9214 94.3811 86.7269 94.3989 86.5435 94.4589C85.9951 94.5887 85.5086 94.9062 85.1673 95.3572L84.7237 94.7393C85.1902 94.1493 85.8488 93.744 86.5833 93.595C86.8595 93.5133 87.1499 93.4919 87.435 93.5321C87.7201 93.5722 87.9934 93.6731 88.2366 93.828C88.4799 93.9829 88.6875 94.1881 88.8457 94.4301C89.0039 94.6721 89.1089 94.9453 89.1539 95.2314C89.4098 96.5416 88.6705 97.7889 87.4478 99.5282L86.9871 100.169L90.1605 99.5454L90.3197 100.341L85.827 101.262Z" fill="#3498DB"/>
<path d="M91.8268 99.3681C92.0862 99.3324 92.3414 99.2711 92.5888 99.185C93.1262 99.0067 93.5952 98.6648 93.931 98.2066C94.3553 97.6021 94.5564 96.8675 94.4997 96.1296H94.4655C94.3123 96.4153 94.0964 96.6622 93.8344 96.8515C93.5723 97.0408 93.2708 97.1677 92.9528 97.2225C92.6718 97.2844 92.381 97.2871 92.0989 97.2306C91.8167 97.1741 91.5492 97.0595 91.3132 96.894C91.0771 96.7285 90.8776 96.5158 90.7272 96.269C90.5768 96.0223 90.4787 95.7469 90.4391 95.4602C90.3633 95.1361 90.353 94.7999 90.4089 94.4716C90.4648 94.1434 90.5857 93.8298 90.7645 93.5496C90.9433 93.2693 91.1763 93.0281 91.4497 92.8403C91.723 92.6525 92.0311 92.522 92.3557 92.4564C93.8002 92.1703 94.9262 93.1716 95.2788 94.991C95.4307 95.5947 95.4587 96.2232 95.3609 96.838C95.2631 97.4529 95.0416 98.0412 94.7101 98.567C94.2558 99.208 93.6042 99.6806 92.8561 99.9116C92.5765 100.017 92.2869 100.094 91.9917 100.14L91.8268 99.3681ZM91.3718 95.2142C91.3865 95.4113 91.4427 95.603 91.5366 95.7766C91.6304 95.9502 91.7598 96.1018 91.9163 96.2213C92.0727 96.3408 92.2526 96.4256 92.444 96.47C92.6355 96.5143 92.8341 96.5173 93.0267 96.4787C93.305 96.4318 93.5662 96.3126 93.7846 96.133C94.0031 95.9534 94.1711 95.7195 94.2722 95.4545C94.3051 95.3347 94.3051 95.2081 94.2722 95.0883C94.0333 93.8753 93.4078 93.0343 92.4068 93.2288C91.6107 93.3718 91.15 94.19 91.3718 95.2142V95.2142Z" fill="#3498DB"/>
<path d="M100.175 91.0374L100.3 91.6725L98.4862 98.7673L97.5024 98.9618L99.3336 92.0959L95.8816 92.7768L95.6996 91.9014L100.175 91.0374Z" fill="#3498DB"/>
<path d="M102.564 96.8048C103.094 96.9928 103.664 97.0401 104.219 96.9421C105.447 96.6961 105.675 95.8321 105.549 95.2256C105.345 94.2301 104.367 93.984 103.445 94.1614L102.911 94.2701L102.768 93.5492L103.303 93.4405C103.997 93.3032 104.81 92.7711 104.645 91.93C104.531 91.3578 104.076 90.9287 103.195 91.1004C102.693 91.2185 102.235 91.4785 101.876 91.8499L101.489 91.1976C101.959 90.7355 102.551 90.4196 103.195 90.2879C104.588 90.0133 105.384 90.717 105.549 91.581C105.619 91.9659 105.561 92.363 105.386 92.7121C105.21 93.0611 104.926 93.343 104.577 93.5149V93.5149C105.027 93.4908 105.47 93.63 105.826 93.9073C106.182 94.1846 106.427 94.5814 106.516 95.0254C106.738 96.1697 106.05 97.314 104.355 97.6687C103.712 97.8067 103.044 97.7672 102.422 97.5543L102.564 96.8048Z" fill="#3498DB"/>
<g opacity="0.24">
<path opacity="0.24" d="M193.948 68.9579V63.5224C186.555 62.9217 182.255 58.682 181.641 52.9432H187.055C187.857 56.6508 190.502 58.8021 193.948 59.34V44.8758C185.764 42.4899 182.574 39.5033 182.574 33.9476C182.574 27.9114 187.374 23.9063 193.948 23.4886V19.4263H197.451V23.5458C205.635 24.324 208.256 29.4619 208.649 33.1695H203.36C202.683 30.7207 201.204 28.3291 197.451 27.6711V40.6991C206.869 43.3253 209.576 47.1473 209.576 52.4684C209.576 59.0996 205.026 62.9846 197.451 63.5224V68.9579H193.948ZM193.948 39.6806V27.5509C189.518 27.9114 187.92 30.4804 187.92 33.3469C187.92 36.2134 189.336 38.1187 193.948 39.6806ZM197.451 45.8943V59.3972C201.699 58.9795 203.974 56.8911 203.974 53.0062C203.974 49.8364 202.558 47.6279 197.451 45.8943Z" fill="#3498DB"/>
</g>
<path d="M195.643 68.5459V63.1047C188.25 62.5326 183.956 58.27 183.342 52.5313H188.756C189.552 56.2389 192.196 58.3902 195.643 58.928V44.4639C187.465 42.078 184.269 39.0913 184.269 33.5357C184.269 27.4994 189.068 23.4943 195.643 23.0767V19.0143H199.151V23.1339C207.335 23.912 209.957 29.05 210.349 32.7575H205.06C204.378 30.3087 202.905 27.9171 199.151 27.2591V40.2871C208.563 42.9133 211.27 46.7353 211.27 52.0564C211.27 58.6877 206.721 62.5726 199.151 63.1047V68.5459H195.643ZM195.643 39.2687V27.139C191.212 27.4994 189.614 30.0684 189.614 32.9349C189.614 35.8014 191.03 37.7124 195.643 39.263V39.2687ZM199.151 45.4823V58.9852C203.4 58.5675 205.669 56.4734 205.669 52.5942C205.669 49.4245 204.258 47.2159 199.151 45.4823Z" fill="white"/>
<g opacity="0.24">
<path opacity="0.24" d="M134.53 71.1321V67.6191C129.765 67.23 126.984 64.4894 126.569 60.7875H130.066C130.274 61.8624 130.818 62.8424 131.618 63.5853C132.417 64.3282 133.432 64.7952 134.513 64.9185V55.5752C129.23 54.0361 127.166 52.1022 127.166 48.5148C127.166 44.6184 130.265 42.0322 134.513 41.7633V39.1371H136.788V41.8034C142.077 42.3011 143.783 45.6197 144.022 48.017H140.61C140.421 47.0987 139.951 46.2628 139.267 45.6258C138.583 44.9888 137.718 44.5826 136.794 44.4639V52.8746C142.873 54.5911 144.625 57.0456 144.625 60.4786C144.625 64.764 141.685 67.2701 136.794 67.6191V71.1321H134.53ZM134.53 52.2509V44.4124C131.687 44.6413 130.635 46.3005 130.635 48.1543C130.635 50.0081 131.528 51.2153 134.53 52.2223V52.2509ZM136.805 56.256V64.9528C139.552 64.6839 141.019 63.3336 141.019 60.8276C141.008 58.7793 140.092 57.3546 136.794 56.2332L136.805 56.256Z" fill="#3498DB"/>
</g>
<path d="M135.628 70.8632V67.3501C130.862 66.9668 128.081 64.2262 127.666 60.5186H131.158C131.367 61.5943 131.911 62.5749 132.712 63.3179C133.513 64.0609 134.528 64.5274 135.611 64.6496V55.312C130.328 53.7671 128.258 51.839 128.258 48.2515C128.258 44.3552 131.357 41.769 135.611 41.4944V38.8739H137.886V41.5516C143.175 42.0551 144.881 45.3736 145.119 47.7652H141.707C141.516 46.8487 141.045 46.0149 140.362 45.3793C139.678 44.7437 138.815 44.3378 137.891 44.2178V52.6285C143.971 54.345 145.722 56.7938 145.722 60.2268C145.722 64.5122 142.782 67.024 137.891 67.3673V70.8803L135.628 70.8632ZM135.628 51.982V44.1206C132.784 44.3552 131.732 46.0144 131.732 47.8625C131.732 49.7105 132.665 50.9521 135.628 51.9534V51.982ZM137.903 55.9871V64.7068C140.644 64.4379 142.117 63.0876 142.117 60.5758C142.105 58.516 141.195 57.0856 137.891 55.9699L137.903 55.9871Z" fill="white"/>
<g opacity="0.24">
<path opacity="0.24" d="M97.2862 45.8314V42.8619C93.2541 42.53 90.8997 40.2128 90.5642 37.0831H93.5214C93.6967 37.9928 94.1567 38.8223 94.834 39.4503C95.5114 40.0782 96.3707 40.4717 97.2862 40.5732V32.6718C92.8162 31.3672 91.0647 29.7366 91.0647 26.6984C91.0647 23.4028 93.6864 21.2115 97.2862 20.9769V18.7683H99.2027V21.0169C103.673 21.4403 105.117 24.2496 105.322 26.275H102.427C102.267 25.4992 101.87 24.7929 101.292 24.2545C100.714 23.7161 99.9839 23.3724 99.2027 23.2712V30.3888C104.321 31.825 105.822 33.9133 105.822 36.8199C105.822 40.4416 103.337 42.5415 99.2027 42.8619V45.8314H97.2862ZM97.2862 29.811V23.2083C94.8636 23.4028 93.9935 24.8046 93.9935 26.3723C93.9935 27.94 94.7669 28.9642 97.2862 29.8339V29.811ZM99.2027 33.2039V40.5847C101.523 40.3558 102.763 39.2115 102.763 37.0888C102.763 35.3838 101.995 34.1765 99.2027 33.2267V33.2039Z" fill="#3498DB"/>
</g>
<path d="M98.2132 45.6025V42.633C94.1811 42.3068 91.8267 39.9896 91.4912 36.8542H94.4484C94.6235 37.7646 95.0832 38.5949 95.7605 39.2238C96.4378 39.8527 97.2972 40.2474 98.2132 40.3501V32.4486C93.7433 31.1441 91.9974 29.5077 91.9974 26.4753C91.9974 23.1739 94.619 20.9883 98.2132 20.7537V18.5395H100.13V20.7938C104.6 21.2172 106.044 24.0264 106.249 26.0462H103.36C103.197 25.2709 102.799 24.5657 102.22 24.0285C101.642 23.4913 100.911 23.1486 100.13 23.0481V30.16C105.248 31.5961 106.755 33.6902 106.755 36.5967C106.755 40.2185 104.264 42.3183 100.13 42.633V45.6025H98.2132ZM98.2132 29.6107V22.9794C95.7906 23.1739 94.9205 24.5814 94.9205 26.1491C94.9205 27.7169 95.6996 28.7582 98.2132 29.6107ZM100.13 33.0036V40.4073C102.45 40.1841 103.695 39.0398 103.695 36.9171C103.695 35.1606 102.922 33.9476 100.13 33.0036Z" fill="white"/>
</svg>
