<svg width="300" height="14" viewBox="0 0 300 14" fill="none" xmlns="http://www.w3.org/2000/svg">
<path d="M140.518 3.22461L137.693 11H136.539L139.791 2.46875H140.535L140.518 3.22461ZM142.885 11L140.055 3.22461L140.037 2.46875H140.781L144.045 11H142.885ZM142.738 7.8418V8.76758H137.945V7.8418H142.738ZM147.578 2.46875V11H146.465V2.46875H147.578ZM150.32 2.46875V3.39453H143.729V2.46875H150.32ZM154.275 3.22461L151.451 11H150.297L153.549 2.46875H154.293L154.275 3.22461ZM156.643 11L153.812 3.22461L153.795 2.46875H154.539L157.803 11H156.643ZM156.496 7.8418V8.76758H151.703V7.8418H156.496ZM163.721 2.46875H164.846V8.24023C164.846 8.88086 164.703 9.41406 164.418 9.83984C164.133 10.2656 163.754 10.5859 163.281 10.8008C162.812 11.0117 162.303 11.1172 161.752 11.1172C161.174 11.1172 160.65 11.0117 160.182 10.8008C159.717 10.5859 159.348 10.2656 159.074 9.83984C158.805 9.41406 158.67 8.88086 158.67 8.24023V2.46875H159.789V8.24023C159.789 8.68555 159.871 9.05273 160.035 9.3418C160.199 9.63086 160.428 9.8457 160.721 9.98633C161.018 10.127 161.361 10.1973 161.752 10.1973C162.146 10.1973 162.49 10.127 162.783 9.98633C163.08 9.8457 163.311 9.63086 163.475 9.3418C163.639 9.05273 163.721 8.68555 163.721 8.24023V2.46875Z" fill="#A1A1A1"/>
<line x1="-1.57912e-10" y1="6.5" x2="123" y2="6.5" stroke="#A1A1A1"/>
<line x1="177" y1="6.5" x2="300" y2="6.5" stroke="#A1A1A1"/>
</svg>
